<?xml version="1.0" encoding="utf-8"?>
<!-- Generator: Adobe Illustrator 22.0.1, SVG Export Plug-In . SVG Version: 6.00 Build 0)  -->
<svg version="1.1" id="レイヤー_1" xmlns="http://www.w3.org/2000/svg" xmlns:xlink="http://www.w3.org/1999/xlink" x="0px"
	 y="0px" viewBox="0 0 200 76.4" style="enable-background:new 0 0 200 76.4;" xml:space="preserve">
<style type="text/css">
	.st0{fill:#040000;}
</style>
<g>
	<path class="st0" d="M11.6,53.8c-1,0.1-2,0.4-2.9,0.7c-0.4,0.2-0.9,0.4-1.3,0.6c-0.4,0.2-0.9,0.5-1.3,0.8c-1.3,0.9-2.1,2-2.5,3.3
		c0,0.1,0,0.1,0,0.2c0,0.1,0,0.1,0,0.2l0,0.3c-0.1,1,0.3,1.7,1,2.4c1,0.7,2.4,1,4.2,0.7c2.7-0.4,5.3-1.8,7.8-4.2
		c1.2-1.2,2.5-2.8,3.9-4.7c1.4-2,2.9-4.3,4.5-7.1l-2.2-0.1l-2.3-0.2l-0.1-0.3l0.4-0.7l0.4-0.3l2.5,0.1l2.4-0.2l1.5-2.6L29,40
		l-4.5,1.2L20.4,42c-6.1,0.9-10.6,0.3-13.7-1.6c-2.4-1.4-3.5-3.6-3.3-6.5c0-0.6,0.1-1.1,0.2-1.5c0.1-0.3,0.2-0.6,0.2-0.8
		c0.4-1.4,1-2.8,1.9-4.2s2.1-2.8,3.5-4.2c0.7-0.7,1.4-1.4,2.2-2c0.8-0.6,1.7-1.3,2.6-1.9c1.8-1.2,3.7-2.3,5.7-3.3
		c4.1-1.9,8.5-3.1,13.3-3.8l3.4-0.5c0.6-0.1,1.2-0.1,2-0.1c0.8,0,1.6,0,2.5,0c1.2,0,2.3,0.1,3.4,0.2c1.1,0.1,2.2,0.3,3.3,0.5
		l1.1-0.7l1.5-0.9l0.5,0.1l0.4,0.2l-0.1,0.5l-0.9,0.7L49.5,13c2.7,1.1,4.6,2.7,5.6,4.8c0.6,1.4,0.9,2.9,0.8,4.6c0,0.5-0.1,1-0.2,1.5
		c-0.1,0.5-0.2,0.9-0.3,1.4c-1.4,5.2-4.5,9.8-9.3,13.8c-1.2,1-2.5,2-3.8,2.8c-1.3,0.8-2.6,1.5-4,2.2c-2.7,1.3-5.7,2.1-9,2.6
		C26.1,51.9,22.7,56,19.1,59c-3.6,3-7.3,4.7-11.1,5.3c-2.7,0.4-4.8,0-6.3-1.1C0.5,62.4-0.1,61.3,0,60c0-0.2,0-0.3,0.1-0.5
		c0-0.1,0.1-0.3,0.1-0.4c0.4-1.5,1.5-2.9,3.4-4c1.8-1.1,4-1.9,6.6-2.3l1.1-0.2l0.7,0l0.1,0.3l-0.1,0.5L11.6,53.8z M31.2,35.7
		c0.4-0.8,0.9-1.6,1.3-2.5c0.7-1.3,1.3-2.5,1.9-3.4c0.5-1,1-1.8,1.4-2.4c0.3-0.5,0.6-1,0.8-1.5c0.3-0.5,0.6-1,0.9-1.5
		c0.3-0.5,0.6-0.9,0.8-1.2c0.2-0.3,0.4-0.6,0.5-0.8l-2.4-0.1L34,22.5c-2.5,0.3-4.9,0.9-7.2,1.7c-1.2,0.4-2.4,0.9-3.7,1.5
		c-1.3,0.6-2.5,1.2-3.7,1.8l-0.5-0.1l-0.1-0.6l0.4-0.5c1.2-0.6,2.4-1.2,3.7-1.8c1.3-0.6,2.6-1.1,3.9-1.6c2.7-0.9,5.3-1.5,7.8-1.9
		l2.4-0.2l3-0.1c0-0.1,0.1-0.2,0.3-0.4c0.2-0.2,0.4-0.5,0.7-0.9c0.3-0.4,0.6-0.7,0.8-1c0.2-0.3,0.5-0.5,0.7-0.8l3.3-3.4
		c-0.7-0.2-1.5-0.4-2.4-0.6c-0.9-0.2-2-0.2-3.1-0.3c-1.2,0-2.3,0-3.6,0.1c-1.2,0.1-2.5,0.2-3.8,0.4c-6,0.9-11.4,2.9-16.2,6.1
		c-4.8,3.3-7.7,7-8.7,11c-0.1,0.4-0.2,0.8-0.3,1.2c0,0.4-0.1,0.7-0.1,1c-0.2,2.4,0.7,4.3,2.5,5.6c2.5,1.6,6.2,2.1,11.3,1.4l4-0.8
		l4.3-1.2C30.3,37.3,30.8,36.5,31.2,35.7z M37.7,42.8c2.2-1.1,4.3-2.5,6.3-4.1c3.9-3.3,6.5-7.4,7.8-12.2c0.3-1.3,0.5-2.4,0.6-3.2
		c0.1-1.5,0-2.8-0.5-3.9c-0.7-1.8-2.1-3.3-4.1-4.5c-0.5,0.5-1,1.1-1.4,1.6c-0.4,0.5-0.9,1.1-1.3,1.6l-2.2,3.5
		c1.6,0.5,2.7,1.4,3.3,2.6c0.4,0.7,0.6,1.6,0.5,2.7c0,0.3-0.1,0.5-0.1,0.7c0,0.2-0.1,0.4-0.1,0.5c-0.6,2-1.9,3.9-3.9,5.6
		c-2.1,1.7-4.9,3.3-8.4,4.7L32.1,42l-1.6,2.9C33,44.6,35.4,43.8,37.7,42.8z M40.9,32.6c1.5-1.5,2.6-3.1,3.2-4.9
		c0.1-0.3,0.1-0.6,0.1-0.8c0-0.2,0-0.4,0.1-0.5c0.1-0.5,0-1.1-0.3-1.7c-0.4-0.7-1-1.2-2-1.7l-2.5,4.7l-4.4,8.4
		C37.3,35.5,39.2,34.3,40.9,32.6z"/>
	<path class="st0" d="M56.7,34.4l0.7-1l0.9-0.5l2.5-0.8l0.3,0l0.3,0.1l0,0.3l-0.1,0.3l-8.6,15.7l-1.5,3.1c-0.2,0.3-0.3,0.7-0.4,0.9
		c-0.1,0.3-0.2,0.5-0.3,0.8c0,0.1-0.1,0.2-0.1,0.3c0,0.1,0,0.2,0,0.3c0,0.4,0,0.7,0.1,0.9c0.2,0.4,0.6,0.5,1.1,0.4
		c1.3-0.2,3.6-1.9,6.9-5.2c0.8-0.8,1.7-1.8,2.7-2.8c0.9-1,1.9-2.1,3-3.4c1.2-1.4,2.5-2.8,3.7-4.2c1.2-1.4,2.4-2.9,3.6-4.4
		c0,0,0,0.1-0.1,0.2c0,0.1,0,0.2-0.1,0.3l0,0.3c-0.2,0.6-0.6,1.4-1.3,2.4c-0.7,1-1.8,2.3-3.1,3.9l-1,1.1c-4.1,4.7-7.5,8.2-10.2,10.4
		c-0.6,0.5-1.2,0.9-1.7,1.3c-0.6,0.4-1.1,0.8-1.7,1.1c-1.2,0.7-2.2,1.1-3.1,1.2c-1.2,0.2-2-0.1-2.5-0.9c-0.1-0.2-0.3-0.5-0.3-0.8
		c-0.1-0.3-0.1-0.6-0.1-1c0-0.1,0-0.3,0.1-0.5c0-0.2,0.1-0.4,0.1-0.8l0.7-1.9l1.4-2.8L56.7,34.4z M64.6,25.8c-0.6,0.1-1.1,0.1-1.4,0
		c-0.3-0.1-0.7-0.2-1-0.4c-0.6-0.3-0.9-0.7-0.9-1.1l0-0.1c0.1-0.2,0.5-0.9,1.3-2.1c0.2-0.2,0.4-0.4,0.5-0.6c0.2-0.2,0.3-0.4,0.5-0.6
		c0.1-0.1,0.1-0.1,0.2-0.2c0.1-0.1,0.1-0.1,0.2-0.2c0.2,0,0.5,0.1,1,0.3l0.8,0.5l0.4,0.2c0.5,0.2,0.7,0.5,0.7,0.9
		c-0.1,0.5-0.2,1-0.4,1.4c-0.2,0.4-0.3,0.7-0.5,1C65.5,25.5,65.1,25.8,64.6,25.8z"/>
	<path class="st0" d="M95.2,32.3l0,0.6c0,0.1-0.1,0.2-0.1,0.4c0,0.1-0.1,0.3-0.2,0.4c-0.1,0.1-0.2,0.3-0.3,0.5
		c-0.1,0.2-0.3,0.4-0.4,0.7c-0.4,0.7-1.2,1.8-2.5,3.4c-4.2,4.9-8.2,8.8-12,11.7c-3.8,2.9-7.3,4.6-10.4,5c-2.3,0.3-4-0.2-5.1-1.7
		c-0.7-1.1-1-2.5-0.9-4.1c0.1-0.9,0.1-1.5,0.3-1.9c0.5-1.8,1.4-3.7,2.7-5.6c0.6-1,1.3-2,2-2.9c0.7-0.9,1.5-1.9,2.4-2.7
		c1-1,2-1.9,3-2.7c1-0.8,2-1.6,3.1-2.3c2.1-1.3,3.9-2.1,5.6-2.3c1.6-0.2,2.8,0,3.5,0.8c0.6,0.5,0.9,1.2,0.8,2.1
		c0,0.1-0.1,0.3-0.1,0.6c0,0.3-0.1,0.6-0.2,1c-0.2,0.8-0.8,1.7-1.9,2.6c-1.1,0.9-2.2,1.5-3.3,1.6l-1.2,0c-0.2-0.1-0.4-0.3-0.5-0.6
		c0.9-0.6,1.6-1.3,2.3-2.1c0.6-0.7,0.9-1.3,1.1-1.8c0.1-0.4,0.2-0.7,0.2-1.1c0-0.5,0-0.9-0.2-1.2c-0.2-0.3-0.7-0.4-1.3-0.4
		c-0.8,0.1-1.7,0.5-2.7,1.2c-0.5,0.3-0.9,0.7-1.4,1.2c-0.5,0.5-1,1-1.5,1.5C74,36,72.5,38.1,71,40.7c-1.5,2.7-2.5,4.8-2.9,6.5
		c-0.2,0.7-0.3,1.2-0.3,1.4s-0.1,0.5-0.1,0.8c-0.1,0.8,0.1,1.6,0.4,2.2c0.6,0.9,1.8,1.3,3.5,1c2.7-0.4,6.1-2.4,10.2-6
		c2.1-1.8,4.3-3.9,6.5-6.4c2.2-2.4,4.6-5.2,7-8.3L95.2,32.3z"/>
	<path class="st0" d="M96.8,27.8c1.8-3.4,3.5-6.6,5.3-9.6c1.8-2.9,3.6-5.6,5.4-8.1c1.8-2.5,3.5-4.6,5.1-6.2c1.6-1.7,3.1-3,4.4-3.8
		l0.3,0c0.2,0.2,0.4,0.3,0.5,0.5c0.1,0.3,0.1,0.7,0.1,1.2l0,0.5l0,0.3c0,0.6-0.2,1.4-0.4,2.2c-0.9,3.3-2.9,7.2-6,11.8
		c-1.6,2.3-3.4,4.6-5.5,7c-2,2.4-4.3,4.9-6.9,7.4l-5.8,11.4c2.2-2.8,4.3-5.3,6.2-7.5c1.9-2.1,3.7-4,5.4-5.5c3.3-3,6-4.6,8.1-4.9
		c1.2-0.2,2.1,0.1,2.7,0.7c0.4,0.4,0.6,1,0.6,1.9c0,0.2,0,0.4-0.1,0.5c0,0.2-0.1,0.3-0.1,0.4c-0.4,1.5-1.7,3.3-3.9,5.3
		c-0.5,0.4-1.1,0.9-1.7,1.4c-0.6,0.5-1.3,1-2,1.4c-1.5,1-3.2,2.1-5.2,3.2c-0.1,1.2,0,2.2,0.1,3c0.1,0.8,0.4,1.6,0.6,2.5
		c0.6,1.1,1.4,1.6,2.3,1.5c1.1-0.2,3.2-1.7,6.3-4.7c0.8-0.7,1.6-1.6,2.4-2.5c0.9-0.9,1.8-2,2.9-3.2c0.9-1.1,2-2.3,3.2-3.7
		c1.2-1.4,2.5-2.9,4-4.7l0,0.3l-0.1,0.7c-0.1,0.3-0.4,0.9-0.9,1.8c-0.1,0.1-0.2,0.3-0.4,0.6c-0.2,0.3-0.4,0.6-0.7,0.9
		c-0.5,0.6-0.9,1.1-1.2,1.5c-0.4,0.4-0.6,0.7-0.8,0.9c-4.5,5.3-8.1,9.1-10.6,11.4c-2.6,2.3-4.6,3.6-6.2,3.8
		c-0.8,0.1-1.5-0.1-2.2-0.5c-0.3-0.3-0.6-0.6-0.8-1c-0.2-0.4-0.4-0.9-0.7-1.4c-0.1-0.3-0.2-0.5-0.3-0.8c-0.1-0.3-0.1-0.5-0.2-0.8
		c-0.1-0.3-0.2-0.5-0.2-0.8c-0.1-0.3-0.1-0.6-0.2-1l-0.1-2.3c0.2-0.5,0.9-1.1,2.1-1.7l0.7-0.4c1.5-0.8,2.8-1.6,3.9-2.3
		c1.1-0.7,2.1-1.4,2.8-2.1c0.8-0.7,1.4-1.4,1.8-2c0.4-0.6,0.7-1.3,0.9-2c0.1-0.3,0.1-0.5,0.1-0.6c0-0.5-0.1-0.8-0.3-1.1
		c-0.3-0.4-0.9-0.6-1.7-0.4c-1.3,0.2-3.2,1.4-5.7,3.8c-2.5,2.3-5.4,5.7-8.9,10.1c-0.5,0.6-1,1.2-1.5,1.9c-0.5,0.7-1,1.4-1.4,2
		l-2.5,3.8c-0.1,0.2-0.2,0.3-0.3,0.5c-0.1,0.1-0.2,0.3-0.3,0.4c-0.3,0.3-0.8,0.5-1.4,0.7l-2.3,0.9L85,52.4l-0.4-0.2l-0.1-0.4
		l0.1-0.3l0.3-0.5L96.8,27.8z M108.8,18.3c2.1-3,3.5-5.8,4.1-8.2c0.3-1.1,0.5-2,0.5-2.9l0.1-1.3c0-0.6,0-1,0-1.3
		c-2.4,2.1-6.3,9-11.6,20.7l-1,2.1C104,24.4,106.6,21.3,108.8,18.3z"/>
	<path class="st0" d="M141.8,22.5l0.1-0.2c0.4-0.7,0.8-1.1,1.4-1.3l2.9-1l0.3,0l0.4,0l0.1,0.4l-0.2,0.4L137,38.2l-1,1.8l-0.5,1.4
		c0,0.1-0.1,0.2-0.1,0.2c0,0.1,0,0.1,0,0.2c0,0.2,0.1,0.4,0.2,0.5c0.1,0.2,0.4,0.3,0.8,0.3c1-0.1,3.1-1.8,6.2-4.9
		c1.5-1.6,3.2-3.4,5-5.4c1.8-2,3.7-4.3,5.7-6.8l2.8-4c1.1-1.6,2-2.6,2.6-2.8l2.6-0.9l0.6,0.1l0.1,0.4l-0.1,0.2l-0.2,0.4l-9.5,17
		l-0.9,1.8l-0.5,1.4c-0.1,0.2-0.1,0.3-0.1,0.5c0,0.2,0.1,0.4,0.2,0.5c0.1,0.2,0.4,0.4,0.7,0.4c1.2-0.2,3.3-1.8,6.2-4.9
		c1.4-1.4,3.2-3.4,5.4-6c1-1.2,2.1-2.5,3.3-3.9c1.2-1.5,2.6-3.1,4-4.9l0.1,0.5l-0.1,0.4c-0.1,0.5-0.6,1.3-1.5,2.5
		c-0.9,1.2-2.1,2.8-3.8,4.8l-0.5,0.7c-2,2.3-3.7,4.2-5.3,5.9c-1.6,1.6-3,3-4.3,4.1c-2.6,2.4-4.6,3.7-6.1,3.9c-1,0.1-1.7-0.1-2.2-0.8
		c-0.3-0.4-0.4-1-0.3-1.9c0-0.4,0.1-0.7,0.1-1c0.3-0.9,0.9-2.3,1.9-4.1c0.6-1.1,1.2-2.3,1.9-3.6c0.7-1.3,1.6-2.8,2.6-4.5
		c-2.5,3-4.7,5.6-6.7,7.9c-2,2.2-3.7,4.1-5.3,5.5c-3.1,2.9-5.6,4.5-7.3,4.7c-1,0.1-1.8-0.1-2.2-0.7c-0.3-0.4-0.4-1-0.3-1.7
		c0-0.2,0-0.4,0.1-0.6c0-0.2,0-0.3,0.1-0.4l0.6-1.8l1.4-2.6L141.8,22.5z"/>
	<path class="st0" d="M152.9,62.3c0-0.1,0-0.3,0-0.5c0-0.2,0-0.5,0-0.7l0.1-1.1c0.1-0.3,0.1-0.6,0.2-0.8c0-0.2,0.1-0.4,0.1-0.6
		l1-4.6c0.2-0.9,0.5-1.7,0.8-2.6c0.3-0.8,0.6-1.7,0.9-2.5c0.3-0.8,0.6-1.6,1-2.4c0.4-0.8,0.8-1.6,1.2-2.5c1.5-3.1,3.6-6.5,6.4-10.3
		l2.8-6.5c2.9-6.8,4.8-10.3,5.8-10.7l2.9-1l0.4,0.1c0,0.2,0,0.4,0,0.5l-0.1,0.3l-4.1,8.5c1.6-1.9,3-3.4,4.3-4.8
		c1.3-1.3,2.5-2.4,3.6-3.3c2.2-1.7,4.1-2.7,5.7-2.9c1.7-0.2,2.8,0.2,3.3,1.2c0.4,0.6,0.6,1.5,0.5,2.6c-0.1,0.6-0.1,1.1-0.3,1.6
		c-0.3,1.3-0.8,2.6-1.6,3.9c-0.8,1.3-1.8,2.6-3,4c-1.2,1.3-2.6,2.6-4.3,3.9c-1.6,1.3-3.5,2.6-5.4,3.8c0.2,0.6,0.6,1,1.1,1.2
		c0.5,0.3,1.2,0.4,2.1,0.2c2.1-0.3,4.8-2,8.1-5.1c3.3-3,7.7-7.9,13.2-14.8l0,0.5l0,0.4c-0.2,0.7-0.7,1.6-1.4,2.6
		c-0.2,0.4-0.7,1-1.5,1.9c-0.8,0.9-1.7,2-2.9,3.3c-4.6,5.1-8.1,8.6-10.6,10.5c-2.7,2.1-5.1,3.3-7.3,3.6c-1.7,0.2-3.2,0-4.6-0.6
		c-0.6-0.3-1-0.7-1.3-1.1c-0.2-0.2-0.3-0.5-0.3-0.8c0,0,0-0.1,0-0.2c0-0.1,0-0.1,0-0.2c0.1-0.4,0.8-1,2.2-1.7l2.2-1.3
		c1.4-0.9,2.6-1.9,3.7-2.9c1.1-1,2.1-2,3-3c1.7-2,2.9-4.1,3.5-6.3c0-0.1,0-0.2,0.1-0.4c0-0.1,0-0.3,0-0.5c0.1-0.7-0.1-1.2-0.4-1.5
		c-0.3-0.7-0.9-0.9-1.8-0.8c-1.3,0.2-3,1.3-5,3.3c-1.1,1-2.2,2.2-3.3,3.5c-1.1,1.3-2.3,2.7-3.6,4.5c-0.9,2-1.9,4-2.9,6.1
		c-1,2.1-2,4.2-3,6.3c-2.1,4.3-3.7,7.6-4.9,9.9c-1.3,2.6-2.5,4.8-3.6,6.6c-1.1,1.8-2,3.2-2.9,4.2L152.9,62.3z M158.5,50.2
		c0.3-0.7,0.6-1.5,1-2.4c0.4-0.9,0.7-1.9,1.2-3c0.4-1.1,0.8-2.2,1.1-3.3c0.4-1.1,0.8-2.2,1.1-3.3c-1.5,1.9-2.9,4.1-4.1,6.6
		c-0.6,1.2-1.1,2.4-1.6,3.8c-0.5,1.4-0.9,2.8-1.3,4.2l-0.4,1.9l0,1.5C156.2,55.3,157.3,53.2,158.5,50.2z"/>
</g>
<path class="st0" d="M200,54.4c0.3,0.4-1.7-0.1-1.4,0.4c-4.1,0.1-7.9,0.6-12.2,1.1c-0.7,0.2-1-0.2-1.5-0.2c-0.1,0.2,0.3,0.4-0.8,0.4
	c-0.6,0-0.4-0.2-0.3-0.4c-0.6,0-0.6,0-1.1,0c-0.1,0.2-0.1,0.2,0.4,0.2c-0.4,0.6-2,0.4-2.5,0.4c-3.4,0-6.9,0.1-10.1,0.7
	c-2.3,0-4.2,0.4-6.3,0.2c-0.1,0.2-0.8,0.4-1.5,0.6c-3.1-0.4-6.8,0.6-10.2,0.7c-0.6,0-1.1-0.2-1.6-0.2c-2.1,1.1-5.2,0.4-7.7,1.1
	c0.1-0.2,0.1-0.4-0.4-0.4c-2,0.9-4.8,1-7.2,1.3c-5.6,0-10.2,0.9-15.9,1.5c-5.7,0.4-10.8,1-16.5,1.7c0,0.2,0.6,0.2,0.6,0.4
	c1.7-0.2,3.4-0.5,5.1-0.8c2.9-0.4,5.1-0.2,8-0.8l0,0.2c7.4-0.7,14.1-1.5,21.6-2.2l5.7-0.2c-0.6,0-0.6,0.2-0.7,0.4
	c-1-0.4-3.3-0.1-4,0.4c-0.6,0-1.2,0.2-1.1-0.2c-0.6,0-1.1,0-1.3,0.5c-3.4,0.1-6.3,0.5-9.6,0.4c-4.2,0.8-7.7,0.9-11.7,1.8
	c5.7-0.2,10.4-1.2,16.1-1.6c0.6,0,0.5,0.2,1.1,0.2c0.7-0.4,1.9-0.7,3-0.5c-0.1,0.2-0.1,0.2-0.1,0.4c-2.8-0.1-4.7,0.6-7.5,0.7
	l0.1-0.2c-1.1,0-2.3,0.3-3,0.7c0.1-0.4-0.6,0-1.1-0.2c0.5,0.2-1.2,0.3-0.7,0.4c-0.5-0.2-0.4,0.3-0.4-0.1c0-0.2-0.2,0.1,0-0.3
	c-3.4,0.2-5.7,0.7-9.1,0.7c-0.6-0.2,1.1-0.3,0.6-0.4c-0.6,0-1.1,0.1-1.1,0.1c-0.6,0.2,0.6,0.4,0.6,0.6c-2.3,0.2-4,0.1-6.3,0.7
	c0-0.2-0.6-0.2-1.1-0.1c-2.3,0.2-4.6,1-7.4,1c0.6,0.2,0.6,0.2,1.1,0.3c5.1-0.7,10.2-1.1,15.9-1.9l0.6,0.2c0,0.2-1.1,0.5-1.7,0.5
	c-5.1,0.4-10.8,0.8-15.9,1.7c0.6,0.2,1.1,0.1,1.7,0.1l-3,0.3c-0.2,0-0.4,0-0.6,0.1l-0.3,0c-0.6-0.2,1.1-0.3,0.6-0.5
	c-0.6,0-1.1,0.1-1.1,0.1s0,0.2,0,0.4c-0.1,0-0.3,0-0.4,0.1c-0.4,0-0.8,0.1-1.1,0.1c-0.1,0-0.2-0.1-0.2-0.3c0.6-0.1,0.6-0.1,0.6-0.3
	c-0.6,0.1-1.1,0.3-1.1,0.5c0.4,0,0.5,0,0.6,0c-4.8,0.6-9.6,1-14.4,1.4c0,0,0,0,0-0.1c-0.1,0-0.3,0.1-0.4,0.1
	c-8.1,0.7-15,1.4-23.1,2.5c-6.7,1-13.4,2.1-20.1,3.2c-0.5-0.2-1.3-0.3-2.4-0.1c-1.1,0.2-2.2,0.4-3.3,0.7l0,0c-0.7-0.1-1.5-0.1-2.4,0
	c0,0.2,0,0.2,0.1,0.4c-1.1,0.2-2.8,0.7-4,0.3c-3.4,0.7-5.7,0.5-9.1,1.1l-1.8-0.3c-3.5-0.2-6.4,0.1-9.9,0.2c-1.2-0.4-3.6-0.3-3.2-1.2
	c3.3-1.3,8-1.3,10.6-2.8c0.1,0.4,1.1-0.2,1.7-0.1c0-0.2,0-0.2,0.4-0.3l1.7-0.3c0.1-0.4-1,0.2-1.6,0.1c2.7-1.1,5.7-0.8,8.5-1.4
	c0-0.1,0-0.1-0.1-0.1c0.5,0,1.2-0.1,1.9-0.3c3.2-0.9,6.5-1.5,9.9-1.9c3.6-0.5,7.1-1,10.6-1.5c8-1.1,16-1.9,24-2.9
	c1.4-0.2,2.2-0.5,2.5-0.9c0.4-0.1,0.8-0.1,1.2-0.1l-0.1-0.1c3.8-0.5,7.5-1,11.2-1.5l0.2,0.1c0.6,0.1,1.7-0.4,1.7,0
	c9.2-1.5,17.8-2.1,26.9-3c-1.7,0.7-4.6,1.2-7.5,1c-0.6,0-0.6,0.3-1.2,0.3c0.9,0.1,1.8,0.1,2.6,0c-3,0.4-5.8,0.9-9,1.1
	c5.1,0,10.9-0.7,16-1.1c2.3-0.6,5.1-0.4,7.5-1c9.2-0.9,18.5-1.4,27.3-2.3c-0.1,0.2-0.1,0.4-0.1,0.4s0.6,0,1.1,0
	c0.1-0.2,0.1-0.4,0.7-0.4c0.9,0.6,2.8,0.1,4-0.1c-0.7,0.4,1.1,0,0.5,0.2c1.7,0,3.6-0.5,5.1-0.1c-0.1,0.2-0.1,0.2-0.1,0.4
	c-0.4-0.4-1.6-0.2-2.2-0.1c-2.5,0.7-5.2,0.3-7.6,0.8c0.1-0.2,0.1-0.2,0.1-0.4l-0.6,0.2l-0.5-0.2c-0.1,0.2-0.1,0.2-0.1,0.4
	c-1.1-0.2-2.2-0.1-3.4-0.1c-1.7,0.1-2.9,0.3-4.7,0.6c-5.7,0.2-11.5,1-17.2,1.6c-2.3,0-4.6,0.3-6.9,0.7c0,0.8,1.7-0.3,2.3,0
	c0.6,0,0.6-0.2,1.1-0.3c0.6,0,1.7,0.1,2.3,0.2c6.3-1.1,13-1.3,19.3-1.8c2.9-0.3,5.3-0.6,8.2-0.9c-0.1,0.2-0.1,0.2-0.1,0.4
	c2.9-0.3,5.8-0.4,8.8-0.9l-0.1,0.2c6.4-0.6,12.9-0.8,19.4-1.1c1.5-0.6,3.8-0.6,6-0.5c0.6,0,1,0.2,1.6,0.2c0.1-0.2,0.1-0.2,0.3-0.4
	c0.4,0.2,1,0.2,1.5,0.2c3.4-0.8,6.5-0.3,9.3-1C196.9,54.7,198.4,54.1,200,54.4z M87.4,61.7c-0.6,0.1-1.1,0.1-1.7,0.2
	c0,0.1,0,0.1,0,0.2c0.6-0.3,1.1,0.1,1.7,0C87.4,61.9,87.4,61.9,87.4,61.7z M92.6,61.2c-0.6,0.3-1.1-0.1-1.1,0.3l0.6-0.1
	C92.6,61.4,92.6,61.4,92.6,61.2z M96.6,60c0.1,0-0.1,0.2,0,0.2c1.1-0.1,1.7-0.1,2.9-0.2C98.9,58.8,97.7,59.9,96.6,60z M94.9,60.4
	l0-0.2C91.4,60.5,91.4,60.7,94.9,60.4z M93.7,60.5c-1.7,0.4-4,0-5.7,0.8l1.7-0.2C90.9,60.8,92.6,61.2,93.7,60.5z M96,60.9
	c-0.6-0.2,0.6-0.7-0.6-0.6c0,0.2,0,0.4,0,0.4s-0.6,0-1.1,0.1c-0.1,0-0.5,0-0.6,0.1C94.3,61.5,95.4,60.8,96,60.9z M85.2,62.4
	c0-0.2,0.6-0.5-0.6-0.4c0,0.2,0,0.2,0,0.4C84.7,62.4,85,62.4,85.2,62.4z M126.2,60.3c-0.6,0.2-1.1-0.2-1.2,0.2l0.6,0
	C126.2,60.5,126.2,60.5,126.2,60.3z M111.4,61.5c0.6,0,0.6,0,1.1-0.1c-0.1,0,0.1-0.2,0-0.2C112,61.2,111.4,61.1,111.4,61.5z"/>
</svg>
