<?xml version="1.0" encoding="utf-8"?>
<!-- Generator: Adobe Illustrator 22.0.1, SVG Export Plug-In . SVG Version: 6.00 Build 0)  -->
<svg version="1.1" id="レイヤー_1" xmlns="http://www.w3.org/2000/svg" xmlns:xlink="http://www.w3.org/1999/xlink" x="0px"
	 y="0px" viewBox="0 0 682.3 94.6" style="enable-background:new 0 0 682.3 94.6;" xml:space="preserve">
<style type="text/css">
	.st0{fill:#FFFFFF;}
</style>
<g>
	<g>
		<path class="st0" d="M30.5,93.9c-3.9,0-3.9-3.9-3.9-5.4c0-1.2,0.1-4.7,0.2-8.4c0.1-3.7,0.2-7.5,0.2-8.9c0-1.5-0.1-2.5-0.2-3.4
			c0,0,0-0.1,0-0.1c0,0,0-0.2-0.1-0.4c-0.1-0.7-0.2-1.2-0.2-1.6c0-1.1,0.7-1.8,1.7-1.8c1.3,0,2.7,0.9,5.8,3c1.9,1.3,3.5,1.3,5,1.3
			h21.2c1.9,0,3.8-0.1,4.1-0.5c0.9-1.4,1.6-2.5,3.2-2.5c1.2,0,7.8,3.8,7.8,6.3c0,0.6-0.5,1.2-1.4,2.3c-0.3,0.3-0.7,0.8-0.7,0.9
			c-0.3,0.5-0.3,3-0.3,12.2c0,4.1-2,6.5-5.4,6.5c-3.1,0-3.5-2.6-3.7-3.7c0-0.2-0.2-1.3-1.8-1.3h-24c-1.2,0-1.7,0.2-1.8,0.8
			C35.3,92.7,32.6,93.9,30.5,93.9z M37.9,72.8c-2.1,0-2.2,0-2.2,4.4c0,6.6,0,6.6,2.2,6.6h23.9c2,0,2.3,0,2.3-6.2
			c0-4.8-0.1-4.8-2.2-4.8H37.9z M6.5,89.7c-0.7,0-1.3-0.5-1.3-1.2c0-0.9,1.5-2.4,2-2.8c11-11.6,13.3-27.6,13.3-39
			c0-0.9-0.1-3.4-0.2-5.9c-0.1-2.4-0.2-4.6-0.2-5.4c0-0.6,0.1-1.1,0.3-1.4c-10,5.8-18.3,8.7-18.9,8.7c-0.8,0-1.5-0.6-1.5-1.3
			c0-0.7,0-0.7,7.4-5.6c1.7-1.1,3.2-2.2,3.8-2.6c19.1-13.8,28-27.4,28.5-29.3c0.4-1.8,0.7-3,2.4-3c0.6,0,10.2,4.3,10.2,7.1
			c0,0.4-0.1,0.7-0.4,1.2c-0.1,0.2-0.2,0.3-0.2,0.4c0.5,2.8,20.3,18.6,38.9,21.9c0,0,0.1,0,0.1,0c0.1,0,0.3,0.1,0.6,0.1
			c2.5,0.5,3.5,0.7,3.5,1.7c0,0.9-0.9,1.2-2.7,1.7c-0.4,0.1-0.7,0.2-0.9,0.3c-1.7,0.9-3.9,2.3-4.6,3.3c-1.4,1.9-1.8,2.6-3.2,2.6
			c-2.6,0-13.9-6.8-23.7-16.2c1.3,1.5,2.3,3,2.3,3.8c0,2.2-1.8,2.2-4.1,2.2H41.1c-1.6,0-4.5,0-6.7,0.2c-0.2,0-0.6,0.1-0.9,0.2
			c-0.5,0.1-0.6,0.1-0.8,0.1c-0.9,0-1.2-0.7-1.5-1.3L30.1,28C30,27.9,30,27.8,30,27.7c-2.8,2-5.6,3.9-8.3,5.5c0,0,0,0,0,0
			c0.8,0,2.1,0.6,4.6,1.9c0.6,0.3,1.2,0.6,1.4,0.7c1,0.4,2.2,0.4,3,0.4h26.1c4.3,0,4.5,0,4.8-0.5l0.1-0.2c1.1-1.8,1.4-2.3,2.5-2.3
			c1.3,0,7.7,4.2,7.7,6.3c0,0.6-0.4,1.1-1.3,2.4c-0.2,0.3-0.6,0.8-0.7,0.9c-0.2,0.6-0.3,0.9-0.3,7.7c0,0.2,0,1.6,0.1,3.1
			c0.1,1.7,0.1,3.5,0.1,3.8c0,3.6-1.3,7.4-5,7.4c-1.7,0-2.1-0.6-3.7-3.3c-0.2-0.3-1.1-0.3-1.5-0.3H28.9c-1.7,0-1.7,0-2.4,2.9
			C22.2,81.2,7.2,89.7,6.5,89.7z M30.8,50.9c-1.8,0-2.2,0-2.2,4.6c0,1,0.3,1.2,1.9,1.2h28.8c1.9,0,1.9,0,1.9-2.6
			c0-3.2,0-3.2-1.9-3.2H30.8z M30.9,40.9c-1.5,0-1.7,0-1.7,3.4c0,1.7,0,2,1.7,2h28.5c1.5,0,1.7-0.3,1.7-1.1c0-4.3,0-4.3-1.7-4.3
			H30.9z M32.6,25.9c0.4,0.1,0.8,0.2,0.9,0.2c0,0,0.1,0,0.1,0c0.9,0.2,4.1,0.3,7.7,0.3h7c1.4,0,1.9-0.1,2.1-0.1c0,0,0,0,0,0
			c2.5-4,2.9-4.8,4.3-4.8c0.6,0,1.6,0.6,2.6,1.4c-3.1-3.2-6-6.6-8.3-10c-0.6-0.9-1-1.3-1.4-1.3c-1,0-2.1,1.3-3.2,2.7
			c-3.6,4.4-7.8,8.3-12.1,11.6C32.4,25.9,32.5,25.9,32.6,25.9z"/>
	</g>
	<g>
		<path class="st0" d="M146.9,93.6c-2.4,0-2.9-1.3-3.3-2.5c-0.7-2-1.6-2.8-4.1-4.2c-1.3-0.6-1.8-0.9-1.8-1.7c0-0.8,0.7-1.3,1.3-1.3
			c0.2,0,0.2,0,1.5,0.3c1.3,0.3,4.1,0.8,4.7,0.8c5.8,0,9.3-0.7,9.3-10.6c0-1.2-0.2-1.3-2-1.3H144c-1,0-1,0-2.9,3l-0.2,0.3
			c-5.1,8.4-11.7,13.5-16.1,15.6c-0.5,0.3-3,1.6-3.6,1.6c-1.1,0-1.4-0.8-1.4-1.2s0-0.4,3.2-3.8c1.8-1.9,4.1-4.3,4.7-5
			c7.9-9.6,9.7-19,9.7-20.9c0-0.1,0-0.4-0.9-0.4c-3.7,0-7.5,0.1-10.7,0.3c-0.3,0-1.2,0.1-1.8,0.1c-0.6,0-1,0.1-1.1,0.1
			c-0.9,0-1.4-0.6-1.7-1l-2-2.2l-0.2-0.2c-0.3-0.3-0.5-0.6-0.5-1.2c0-0.6,0.4-1.2,1.4-1.2c0.2,0,0.7,0,2.1,0.1
			c1.5,0.1,3.6,0.3,4.2,0.3l0.2,0c4.8,0.2,7.2,0.3,11.1,0.3c1.3,0,1.4-0.3,1.4-1.6c0-0.8,0-2.8-0.4-4.4c0,0,0-0.1,0-0.1
			c0-0.1-0.1-0.3-0.2-0.4c-0.2-0.6-0.4-1-0.4-1.3s0.1-1.4,1.8-1.4c1.4,0,9.4,1.6,9.4,4.4c0,1-0.5,1.3-1.5,2
			c-0.3,0.2-0.4,0.3-0.4,1.4c0,1,0.1,1.4,1.3,1.4h6.7c2.4,0,3.8,0,4.5-0.2c0.2-0.2,0.9-1,1.4-1.5c1.7-2,2.5-2.9,3.4-2.9
			c2,0,6.9,4.8,6.9,6.8c0,2.4-2.5,2.4-6.4,2.4h-20.3c1.1,0.7,2.6,1.8,2.6,3.5c0,0.7-0.5,1.3-1.5,2.3c-0.1,0.1-0.3,0.3-0.4,0.4
			c0,0,7.9,0,7.9,0c1.3,0,1.3,0,2.1-0.8c0.8-0.7,1.6-1.4,2.7-1.4c1.4,0,7.1,2.9,7.1,4.9c0,0.7-0.6,1.3-1.7,2.2
			c-0.2,0.2-0.6,0.5-0.7,0.6c0,0-0.1,0.1-0.1,0.1c-0.2,0.4-0.5,2.9-0.6,4.1c-0.1,0.8-0.2,1.4-0.2,1.7c-1,5.6-2.2,9.8-8.8,12.2
			C150.5,93.3,148,93.6,146.9,93.6z M159.5,93.4c-0.8,0-1.6-0.5-1.6-1.3c0-0.5,0-0.8,4.2-3.6c13.6-10.7,18.2-20,18.2-21.5
			c0-1-0.2-1.6-1.2-4.4c-0.4-0.8-4.1-9.2-6.2-27c-0.5,0.7-1,1.5-1.1,1.8c-1.7,2.8-6.8,10.1-8.5,10.1c-0.4,0-0.7-0.1-0.9-0.3
			c-1,1.7-2.6,2.5-4.2,2.5c-0.6,0-1.2-0.3-1.9-0.7l-0.3-0.2c-0.3-0.2-0.9-0.4-1.6-0.4h-22.6c-1.3,0-1.4,0.1-1.9,0.8
			c-1.6,2-3.4,2.1-3.9,2.1c-1.9,0-3.8-1.5-3.8-4.5c0-1.1,0.1-4.1,0.2-6.9c0.1-2.6,0.2-5.1,0.2-6c0-2.9-0.4-7.1-1-9.8
			c0-0.1,0-0.1,0-0.2c0,0-0.1-0.2-0.1-0.4c-0.1-0.4-0.2-0.7-0.2-0.9c0-0.8,0.6-1.7,1.7-1.7c0.7,0,3.4,0.8,5.9,2.2
			c0.8,0.5,1.6,0.7,2.8,0.7h5.7c1.1,0,1.6-0.2,1.6-1.4c0-2.2,0-4.4-0.1-4.9c-0.2-0.5-0.2-0.5-3.9-0.5c-5.3,0-9,0.2-10.6,0.3
			c-0.2,0-0.8,0.1-1.1,0.1c-0.5,0.1-0.9,0.1-1,0.1c-0.6,0-1.2-0.3-1.7-1l-2-2.2c0,0-0.2-0.2-0.2-0.3c-0.2-0.3-0.4-0.6-0.4-1.1
			c0-0.1,0-1.2,1.3-1.2c0.6,0,3,0.2,3.8,0.3c0.3,0,1,0,2.1,0.1c2.9,0.1,7.7,0.3,10.3,0.3c3.3,0,3.4-0.2,3.4-1.2
			c0-1.2-0.1-3.7-0.3-4.5c0-0.2-0.2-0.6-0.3-1c-0.4-1.1-0.5-1.6-0.5-2c0-0.6,0.3-1.7,2.1-1.7c0.1,0,9.2,0.5,9.2,4
			c0,0.6-0.4,1.1-1.3,2.2c-0.1,0.1-0.2,0.2-0.3,0.3C147.2,9,147,10,147,10.9c0,1.2,0.2,1.4,1.6,1.4h6.1c4.5,0,4.5,0,5.4-1.3
			c1.5-2.2,2.4-3.2,3.8-3.2c2.2,0,7.3,4.7,7.3,6.7c0,2.4-2.7,2.4-6.4,2.4h-16.4c-1.7,0-1.7,0.1-1.7,3c0,3.8,0,3.8,1.7,3.8h5.6
			c0.7,0,1.1,0,2-1.1l0.4-0.5c0.8-0.9,1.4-1.6,2.6-1.6c1.8,0,6.6,2.9,6.6,5.1c0,1.3-0.8,1.6-2.3,2.2c-0.2,0.1-0.4,0.3-0.4,1.5
			c0,1.1,0.1,4.1,0.3,7.1c0.1,2.6,0.2,5,0.2,6.2c0.1-0.3,0.2-0.5,0.4-0.8c0.9-2.1,2-4.5,2.2-5c4.9-11.5,6.1-16.4,8.7-27.5
			c0.1-0.6,0.5-2.1,0.5-3c0-0.2-0.2-0.8-0.3-1.2c-0.2-0.9-0.4-1.4-0.4-1.7c0-0.9,0.7-1.6,1.5-1.6c0.6,0,11.4,3.7,11.4,6.6
			c0,0.8-0.7,1.4-2,2.5c-0.3,0.3-0.8,0.7-1,0.8c0,0,0,0,0,0.1c-0.1,0.2-0.6,1-2.2,5.4c-0.5,1.2-2.8,6.5-3.4,8c0.2,0,0.3,0,0.5,0
			h12.2c1.4,0,3.2,0,3.9-0.2c0.3-0.2,1.1-1.4,1.7-2.2c1.6-2.2,2.4-3.4,3.5-3.4c1.9,0,9.2,6.1,9.2,8.2c0,2.3-1.4,2.3-6,2.3h-2.9
			c0.1,0,0.1,0.1,0.2,0.1c0,0,0.1,0,0.1,0.1c0.1,0.1,0.2,0.1,0.3,0.2c0.8,0.5,2.2,1.3,2.2,2.8c0,0.7-0.6,1.4-2.1,2.6
			c-0.1,0.1-0.2,0.2-0.3,0.3c-0.5,0.7-1,1.5-1.8,4.5c-1.5,6.7-3.7,13.5-6.7,20.8c-0.6,1.4-2.1,5.2-2.2,5.8c0,2.1,8.1,10.9,16.7,15.2
			l1.3,0.7c4.3,2.2,4.6,2.3,4.6,3.4c0,1.2-1,1.3-2.3,1.4c0,0-0.1,0-0.2,0c-1.1,0-6.2,0.5-7.6,1.6l-0.5,0.4c-1.6,1.3-1.9,1.5-2.7,1.5
			c-3.1,0-11.7-12.5-11.8-12.6c-1.5-2.5-2.2-3.2-2.5-3.3c-0.3,0.1-0.9,0.9-2.5,3l-0.1,0.1C174.5,88.7,160.9,93.4,159.5,93.4z
			 M176.7,29.8c-0.2,0-0.5,0-0.6,0.1c0,0-0.1,0.2-0.1,0.5c0,7.1,6.8,25.4,8.9,28.2c1.9-2.5,5.5-17.7,5.5-27.5c0-1.2-0.1-1.3-2.1-1.3
			H176.7z M148.4,38.3c-1.6,0-1.7,0.4-1.7,2.4c0,2.8,0.1,3,1.7,3h4.9c1.6,0,1.7-0.5,1.7-2.4c0-2.8-0.1-3-1.7-3H148.4z M132.3,38.3
			c-1.6,0-1.6,0-1.6,3.5c0,1.7,0.3,1.9,1.6,1.9h5.1c1.5,0,1.6,0,1.6-3.5c0-1.7-0.3-1.9-1.6-1.9H132.3z M148.3,28.3
			c-1.5,0-1.6,0.2-1.6,2.4c0,2.9,0,2.9,1.6,2.9h5.2c1.6,0,1.6-0.1,1.6-2.4c0-2.9,0-2.9-1.6-2.9H148.3z M132.3,28.3
			c-1.7,0-1.7,0-1.7,2.8c0,2.4,0.1,2.5,1.7,2.5h5.1c1.6,0,1.6,0,1.6-2.8c0-2.5,0-2.5-1.6-2.5H132.3z M157.5,11.9
			c-2,0-3.1-1.4-4.7-3.7c-0.3-0.5-1.9-2.1-3.1-3.3c-2.4-2.4-2.4-2.4-2.4-2.9c0-0.1,0-1.1,1.3-1.1c1.3,0,4.5,0.8,5.8,1.3
			c4.9,1.8,6.6,3.3,6.6,5.8C161.1,10.3,159.2,11.9,157.5,11.9z"/>
	</g>
	<g>
		<path class="st0" d="M298.5,90.7c-24.2,0-25.2-3.8-25.2-18.4c0-1,0-2.8,0-5.1c0-6.5-0.1-16.3,0-18.8c0-0.8-0.2-1-0.2-1
			c-0.5,0.1-2.3,1-5.4,2.7c-1,0.6-1,0.6-1.3,0.6c-0.3,0-0.6-0.1-0.8-0.2c-0.1,0-0.2-0.1-0.4-0.2c0,0-0.1,0-0.1-0.1l-2.5-1.4
			c-0.7-0.4-1.1-0.9-1.1-1.5c0-0.4,0.3-0.8,0.6-0.9c2.4-0.9,5.9-2.3,7.4-2.9c3.7-1.5,3.7-1.5,3.7-7.3c0-1.7,0-6.1-0.3-12.7
			c0-0.3-0.1-1-0.2-1.8c-0.3-2.1-0.5-3.7-0.5-4.2c0-1.7,0.8-2,1.5-2c0.5,0,6.8,1.7,6.8,1.8c1.8,0.5,3.5,0.9,3.5,2.6
			c0,0.5-0.3,1-1.1,2c-0.2,0.2-0.3,0.4-0.4,0.5c-0.4,1.3-0.6,2.3-0.6,5.9c0,0.6,0,2.3,0,3.9c0,1.7,0,3.4,0,4c0,1.3,0.2,1.3,0.6,1.3
			c0.1,0,0.5-0.2,1.2-0.4l6-2.6c1.5-0.7,1.7-1.8,1.7-4.1c0-14.2-0.1-18.8-0.5-23.5c0-0.1-0.1-0.4-0.2-0.8c-0.4-1.8-0.5-2.8-0.5-3.3
			c0-1.7,0.9-1.9,1.5-1.9c0.7,0,2.4,0.5,5.6,1.5c0.9,0.3,1.8,0.6,2.1,0.6c2.1,0.6,3.2,1.5,3.2,2.6c0,0.7-0.6,1.3-1.6,2.4
			c-0.3,0.3-0.6,0.7-0.8,0.9c-0.2,1.4-0.4,3.7-0.4,6.6v12.1c0,1.2,0.2,1.8,0.5,1.8c0.4,0,0.8-0.1,1.6-0.4l6.1-2.7
			c2.1-0.9,2.3-1.5,3-4.2l0.2-0.7c0.6-2,0.9-2.9,2.3-2.9c0.5,0,1.2,0.3,3.6,1.8c0.5,0.3,0.9,0.5,1.1,0.7l0.8,0.6
			c2.9,2,3.5,2.3,3.5,3.6c0,0.7-0.6,1.5-1.5,3c-0.4,0.6-1,1.5-1.1,1.8c-0.3,1.6-0.4,6.5-0.4,11.7c-0.1,7.8-0.1,16-1,18.6
			c-1.6,4.4-6.9,6.3-9.2,6.3c-3,0-3.3-1.4-3.4-3.2c-0.2-1.9-3-4.3-4.6-4.7c0,0-0.1,0-0.1,0c-0.3-0.1-0.9-0.3-1.3-0.7
			c0.1,5.2,0.2,10,0.2,11.7c0,1.4,0,5.7-6,5.7c-2.3,0-3.4-1.3-3.4-3.8c0-0.7,0.1-3.6,0.2-7.3c0.1-5.1,0.3-11.4,0.3-13.3
			c0-4,0-7.5-0.1-10.5c0-0.4,0-1.1-0.1-1.3c0,0,0,0-0.1,0c0,0-0.3,0.1-0.7,0.2l-6.2,2.8c-2.3,1.1-2.4,2.2-2.4,4.1
			c0,22.4,0,22.8,0.1,25.2c0.3,10.6,0.3,10.8,17.5,10.8c17.6,0,17.8-1,20.2-10.6c0.1-0.4,0.2-0.9,0.3-1.7c1.3-7.3,1.7-8,2.8-8
			c1.3,0,1.8,1.9,1.8,3.6c0,3.6,0.9,11.3,2.2,12.6c1.6,1.6,2,2,2,3c0,2.3-3,6.1-6.9,7.8C319.1,90.2,311.9,90.7,298.5,90.7z
			 M310.1,30.7c-0.1,0-0.5,0.2-1.1,0.4l-6,2.7c-3,1.3-3,1.5-3,9.3c0,2,0.1,7.5,0.2,13c0.3-0.4,0.7-0.5,1.1-0.5
			c0.6,0,2.1,0.1,3.7,0.2c1.4,0.1,2.8,0.2,3.2,0.2c2.2,0,2.2-0.2,2.3-1c0.3-2.2,0.5-17.8,0.5-20.6C311,30.7,310.9,30.7,310.1,30.7z
			 M242.7,87c-2,0-7.8-8.3-7.8-9.9c0-1.6,1.8-1.9,2.5-2c0.5-0.1,4.5-1.1,5.5-1.4c5-1.2,5.9-1.6,6.1-2.1c0.1-1.4,0.2-13.6,0.2-32.1
			c0-2.2-0.2-2.4-1.7-2.4c-0.9,0-4,0-5.8,0.2c-0.2,0-0.8,0.1-1.3,0.1c-0.6,0.1-1.3,0.1-1.4,0.1c-0.9,0-1.3-0.6-1.6-1l-1.7-2.3
			l-0.2-0.2c-0.2-0.3-0.4-0.6-0.4-1.1c0-0.1,0-1.2,1.4-1.2c0.2,0,0.7,0.1,1.2,0.1c0.4,0,0.8,0.1,0.9,0.1c2,0.2,6.5,0.4,8.8,0.4
			c1.4,0,1.6-0.2,1.7-0.7c0-0.1,0.1-1.7,0.1-13.7c0-1.2-0.2-8-0.3-9.4c0-0.2-0.1-0.6-0.1-0.9c-0.1-0.7-0.2-1.2-0.2-1.4
			c0-1.1,0.7-1.8,1.8-1.8c0.4,0,10.4,2,10.4,4.6c0,0.7-0.5,1.3-1.4,2.2c-0.2,0.2-0.5,0.5-0.5,0.6c-0.1,0.2-0.8,2.2-0.8,16.1
			c0,2.2,0,4,0.2,4.5c0,0,0.1,0,0.1,0c1,0,1.3-0.1,2.3-1.5c2-2.7,2.5-3.4,3.8-3.4c1.5,0,7.7,5.6,7.7,7.5c0,2.1-1.3,2.1-5.2,2.1h-7
			c-1.3,0-1.6,0.5-1.7,0.7c-0.2,1.6-0.3,21.1-0.3,23.9c0,0.4,0,1.5,0,2.8c0,1.4,0.1,2.9,0.1,3.4c0,0.9,0.2,1.4,0.4,1.4
			c0.7-0.1,5.4-1.6,7.9-2.4c3.2-1,3.2-1,3.5-1c1,0,1.5,0.7,1.5,1.3c0,1.3-2.3,3.1-17.5,11.9c-3.7,2.2-7.3,4.2-8.2,5
			c0,0.1-0.1,0.2-0.2,0.3C244.3,86.2,243.5,87,242.7,87z"/>
	</g>
	<g>
		<path class="st0" d="M397.7,94.6c-0.8,0-1.3-0.5-1.3-1.3c0-0.6,0.2-0.9,3.2-3.1c0.3-0.2,0.5-0.4,0.6-0.5
			c11.6-9.5,18.6-19.2,18.6-20.9c0-1-0.2-1.7-0.8-3.2c-3.9-10.6-4.9-18.3-6.3-33.4c-0.2-2-0.6-2.1-2-2.1H404c-2.2,0-9.1,0-12.5,0.3
			c-0.2,0-0.8,0.1-1.2,0.1c-0.5,0.1-0.9,0.1-1,0.1c-1,0-1.4-0.6-1.7-1l-1.9-2.3c0,0,0-0.1-0.1-0.1c0-0.1-0.1-0.1-0.2-0.2
			c-0.2-0.2-0.5-0.6-0.5-1.1c0-0.6,0.4-1.2,1.4-1.2c0.4,0,1.2,0.1,2.4,0.2c0.8,0.1,1.7,0.1,2,0.1l0.6,0c4.4,0.2,8.6,0.4,13.1,0.4
			h5.3c1.5,0,1.6-0.4,1.6-2.6c0-6.2-0.4-15.8-0.6-17.6c-0.1-0.4-0.3-1.4-0.4-2.2c-0.1-0.5-0.2-1-0.3-1.3c0-0.1,0-0.2,0-0.3
			c0.2-1.4,1.1-1.5,2-1.5c0.1,0,11.4,0.9,11.4,4.3c0,0.7-0.5,1.3-1.6,2.7c-0.3,0.3-0.7,0.8-0.8,1c-0.4,1-0.7,9.1-0.7,14.2
			c0,3,0.1,3.3,2,3.3h3.8c5.1,0,5.1,0,5.7-1.3c1.4-2.9,2.6-4.8,4.1-4.8c1.4,0,8.6,6.5,8.6,8.3c0,2.4-2.5,2.4-6.4,2.4h-15.6
			c-2,0-2,0.6-2,2.3c0,9.5,3.1,21.5,4.1,24.6c0.1,0.4,0.3,0.7,0.4,0.9c1.8-1.9,6.1-14.5,6.6-18.6c0.3-2.2,0.4-3.8,2.2-3.8
			c0.8,0,3.6,1.3,5.7,2.4c3.1,1.6,3.9,2,3.9,3.5c0,1.3-0.7,1.7-2.5,2.8c-0.5,0.3-0.8,0.8-1.3,2.1c-3.8,9.1-4.4,10.2-9.7,18.9
			c-0.3,0.5-0.7,1.1-0.7,2.1c0,1.9,5.5,9.8,7.1,10.8c0.9-0.4,3.7-4,7-10.8c1-2.3,1.2-2.8,2.2-2.8c0.7,0,1.4,0.5,1.4,1.5
			c0,1.3-0.9,4.9-2.3,10.3c-0.8,3.1-1.8,7-1.8,7.7c0,0.3,0.4,1.7,0.7,2.6c0.5,1.5,0.7,2.4,0.7,2.9c0,2.7-1.8,4.5-4.4,4.5
			c-6.8,0-16.7-16.6-16.8-16.8c-0.3-0.4-0.7-0.8-0.8-0.8c-0.3,0-0.5,0.2-0.9,0.6l-0.2,0.2c-8.3,9.2-16.4,13.9-18.7,15.1
			C398.3,94.6,398,94.6,397.7,94.6z M383.3,88.7c-1.3,0-1.7-0.6-3.5-3.7l-0.2-0.3c0,0-4-6.7-4-7.4c0-0.8,0.7-1.7,2.2-1.7
			c0.4,0,1.2,0.1,2.3,0.2c0.6,0.1,1.4,0.1,1.6,0.1c4.5,0,24.2-4.9,31.2-6.9c0.2,0,0.4-0.1,0.8-0.3c1-0.3,1.4-0.5,1.7-0.5
			c0.8,0,1.3,0.5,1.3,1.3c0,1.2-0.9,2-19.5,10.9c-4.7,2.2-9.1,4.3-10,5c-0.2,0.1-0.6,0.6-1,1C384.7,88.1,384.1,88.7,383.3,88.7z
			 M356.8,79.9c-1.6,0-2.1-1.4-2.4-2.2c0-0.1-3.4-8.5-3.4-9.4c0-1.2,0.9-2,2.1-2c0.3,0,0.7,0.1,1.6,0.2c0.4,0.1,1.1,0.2,1.2,0.2
			c1.1,0,5.4-0.6,6.7-0.8c1.8-0.3,1.8-0.3,1.8-9.8c0-18.3-0.2-20.7-0.3-21c-0.1-0.4-0.5-0.6-1-0.6c-0.4,0-2,0.2-3.2,0.3
			c-1.3,0.1-2.1,0.2-2.4,0.2c-0.9,0-1.3-0.6-1.7-1l-2-2.3c0,0-0.2-0.2-0.2-0.3c-0.2-0.3-0.4-0.6-0.4-1.1c0-0.7,0.6-1.2,1.3-1.2
			c0.6,0,2.3,0.1,4,0.3c1.6,0.1,3.5,0.3,4.1,0.3c1.5,0,1.7-0.3,1.7-4.5c0-3,0-12.2-0.3-15.1c0-0.2-0.1-0.7-0.2-1.3
			c-0.3-1.7-0.6-3-0.6-3.5c0-0.9,0.5-1.9,2.1-1.9c0,0,0.1,0,0.1,0c1.5,0.2,6.4,1.2,8.8,1.8c1.5,0.3,2.3,1.1,2.3,2.4
			c0,0.7-0.5,1.2-1.6,2.3c-0.3,0.3-0.7,0.7-0.8,0.9c-0.4,1.5-0.6,12.6-0.6,15.2c0,1.1,0,2.7,0.3,3v0c0,0,0,0,0.1,0
			c0.5,0,0.9-0.7,1.2-1.4c0-0.1,0-0.1,0.1-0.2c0-0.1,0.1-0.2,0.2-0.3c0.6-1.1,1.6-3,3.2-3c2.1,0,7.3,5.5,7.3,7.8
			c0,2.5-2.7,2.5-6.4,2.5h-3.5c-1.1,0-2,0-2.4,0.6c0,0.2-0.2,1.6-0.2,7.8c0,9.4,0.1,19.2,0.2,20c0.2,0.5,0.3,0.8,1,0.8
			c0.6,0,4.1-0.8,6-1.3c2.4-0.6,2.7-0.6,3-0.6c0.5,0,0.9,0.2,1.1,0.5c0-0.1,0-0.3,0-0.4c0-1.6,0.1-3.2,0.1-3.7
			c0-1.7-0.1-14.5-0.2-16.3c0-0.3-0.1-1.3-0.2-2c-0.2-1.3-0.3-2.1-0.3-2.5c0-0.5,0.2-2,2.3-2c1.3,0,3.2,0.9,5.1,2
			c0,0,0.1,0.1,0.1,0.1c2.2,1.3,2.9,1.3,4.4,1.3h2.4c1.3,0,1.9,0,2.5-1.2c0.2-0.5,0.9-2.1,2.8-2.1c0.4,0,8.4,2.6,8.4,5.3
			c0,1.4-1.3,2.4-1.9,2.9c0,0-0.1,0-0.1,0.1c-1,0.6-1,0.7-1,8.3c0,0.7,0.1,2.6,0.2,4.4c0.1,2.1,0.3,4,0.3,4.8c0,1.7,0,6.2-5.3,6.2
			c-3.2,0-3.6-1.6-4.1-3.6c0,0,0-0.1,0-0.1c-0.1-0.6-0.4-0.7-1.4-0.7h-3.3c-1.4,0-1.5,0.3-1.6,1.4c-0.3,4.4-3.3,5.4-5.8,5.4
			c-2.1,0-3.5-1.6-3.5-4c0-0.3,0-1,0-1.8c-0.9,1.3-4.1,3-13.9,7.7c-4.3,2-9.7,4.6-10.3,5.3C358.7,79.3,358.3,79.9,356.8,79.9z
			 M393.6,57.8c0.2,0.3,0.6,0.4,1.4,0.4h3.8c1.8,0,1.8,0,1.8-8.8c0-6,0-6-1.7-6H395c-1.6,0-1.6,0-1.6,5
			C393.4,53.3,393.5,57,393.6,57.8z M436.4,17.4c-1.6,0-2.1-0.6-4.8-4.2l-0.1-0.1c-1.7-2.2-2.5-3.1-4.6-5c-0.4-0.2-1.3-0.9-1.3-1.6
			c0-0.7,0.4-1.5,1.7-1.5c0.2,0,0.8,0,1.4,0c0.6,0,1.3-0.1,1.5-0.1c6.9,0,9.2,3.2,9.9,6c0.3,1.2,0.2,3.6-1,5.2
			C438.4,16.9,437.5,17.4,436.4,17.4z"/>
	</g>
	<g>
		<path class="st0" d="M486.8,94.2c-1.4,0-2.8-0.9-2.8-3.5c0-1.2,0.2-4.4,0.3-7.5c0.1-2.7,0.3-5.6,0.3-6.5c0.4-14.9,1.1-41.7,1.1-54
			c0-6.3-0.1-7.9-0.5-15.3l0-0.8c-0.1-0.9-0.2-2.9-0.2-3.1c0-1.3,0.5-1.9,1.4-1.9c0.6,0,7.3,1.3,7.6,1.3c1.3,0.2,2.8,0.7,3,2.3
			c0.1,1.1-0.4,2.1-1.6,3.2c-0.7,0.7-1,1.2-1.1,2.8c-0.2,6.8-0.8,35.5-0.8,40.1v38c0,0,0,0.1,0,0.1C493,93,488,94.2,486.8,94.2z
			 M544.8,93.9c-1.1,0-1.7-0.9-2-1.4c-0.8-1.3-2.1-2.2-3-2.8l-0.1-0.1c-0.1,0-0.2-0.1-0.4-0.2c-1.8-0.7-2.8-1.2-2.8-2.1
			c0-1,1.1-1.6,2.1-1.6c1.8-0.2,4.3-0.7,5.6-1.4c0.6-0.3,0.7-0.4,0.7-7.6c0-1.1-0.4-1.4-1.9-1.4h-22.9c-1.4,0-1.7,0.3-1.9,1
			c0,0.3-0.1,3.4-0.1,11.2c0,3.8-2.3,6.2-6,6.2c-2.6,0-3.1-1.3-3.1-3.7c0-0.5,0.1-1.9,0.2-3.4c0.1-1.4,0.3-3,0.3-3.6
			C509.8,76,510,67.5,510,57c0-0.7-0.1-2.8-0.1-4.8c-0.1-2.1-0.2-4.3-0.2-5.2c0-0.5,0-2.1,1.8-2.1c0.6,0,1.6,0.3,3.6,1
			c0.9,0.3,2,0.7,2.3,0.8c0.1,0,0.1,0,0.2,0c0.9,0.3,1.9,0.4,3.1,0.4h22.1c1.5,0,2-0.5,2.3-0.8c1.3-1.5,1.8-2,3.1-2
			c1,0,1.5,0.3,5.1,2.2c1.6,1,2.6,1.5,2.6,3.2c0,0.8-0.3,1.6-1,2.2c-0.4,0.4-1,1-1.3,1.4c0,0-0.1,0.1-0.1,0.1
			c-0.1,0.4-0.3,2.2-0.3,10.3c0,1.4,0.1,5.4,0.3,9.7c0.2,4.5,0.3,9.2,0.3,11C553.8,90.5,547,93.9,544.8,93.9z M519.8,63.3
			c-1.4,0-1.6,0.3-1.6,5.2c0,1.7,0,2.2,1.9,2.2H543c1.9,0,1.9-0.5,1.9-2.4c0-5-0.1-5-1.8-5H519.8z M520.2,51.9
			c-1.6,0-1.8,0.3-1.8,3.6c0,2.8,0.2,3.2,1.6,3.2h23c1.3,0,1.8-0.4,1.8-1.4c0-5.4-0.1-5.4-1.8-5.4H520.2z M475.3,48.3
			c-2.7,0-4.4-2.2-4.4-4.3c0-2,0.6-2.7,3.2-5.8l0.4-0.5c1.7-2,3.7-6.5,3.9-10.8c0.2-2.2,1.3-2.5,1.7-2.5c2.8,0,2.8,9.5,2.8,9.9
			C482.9,41.1,480.5,48.3,475.3,48.3z M505,41.6c-0.7,0-1.1-0.4-1.6-0.9l-2-2.4c-0.4-0.6-0.6-0.8-0.6-1.3c-3.3,0-3.5-1.4-4.5-8
			c-0.3-1.6-0.6-2.8-1.8-5.3c-0.1-0.2-0.5-1-0.5-1.8c0-1,0.7-1.7,1.7-1.7c0.2,0,0.4,0,0.7,0.1c1.5,0.3,9.4,4.8,9.4,10.5
			c0,2.2-0.8,4-2,5.1c0.2,0,0.4,0,0.6,0.1c0.8,0.1,1.8,0.1,2.1,0.1c2.7,0.2,7.9,0.4,13.8,0.4h4.4c2,0,2,0,2-5.9
			c0-1.5-0.1-1.8-2.6-1.8c-0.7,0-7.6,0.1-10.1,0.3c-0.2,0-0.6,0.1-1,0.1c-0.5,0.1-1,0.1-1.2,0.1c-1,0-1.4-0.6-1.7-1l-1.9-2.3
			c-0.4-0.4-0.7-0.7-0.7-1.3c0-0.4,0.3-1.2,1.4-1.2c0.3,0,0.8,0.1,1.8,0.1c0.7,0.1,1.6,0.2,1.8,0.2c0,0,0.1,0,0.1,0
			c0.7,0.1,10.8,0.4,12.9,0.4c1.3,0,1.5,0,1.5-6.4c0-1.2-0.5-1.5-2.1-1.5h-3.8c-2.3,0-9.2,0-12.6,0.3c-0.2,0-0.5,0-0.9,0.1
			c-0.6,0.1-1,0.1-1.3,0.1c-0.7,0-1.1-0.4-1.6-0.9c0,0,0-0.1-0.1-0.1l-1.9-2.3c-0.4-0.6-0.6-0.8-0.6-1.3c0-0.6,0.4-1.2,1.3-1.2
			c0.4,0,1.3,0.1,2.3,0.2c0.8,0.1,1.8,0.1,2.1,0.1c2.7,0.2,7.9,0.4,13.8,0.4h3.4c1.9,0,1.9,0,1.9-5.5c0-0.2-0.1-1-0.2-1.6
			c-0.2-1-0.3-1.6-0.3-1.9c0-1.4,1-1.5,1.4-1.5c1.9,0,5.2,0.6,7.5,1.2c2.2,0.4,2.5,1.9,2.5,2.5c0,0.6-0.4,1.1-1.7,2.7
			c-0.1,0.1-0.2,0.3-0.3,0.4c-0.6,1.2-0.6,2.1-0.6,2.3c0,1.1,0.5,1.5,2,1.5h6.2c4.1,0,4.3,0,4.9-0.5c0.1-0.1,0.5-0.6,0.8-1
			c1.5-2,2.3-2.9,3.2-2.9c1.2,0,7.6,4.6,7.6,6.7c0,2.3-2.6,2.3-6.3,2.3h-16.5c-1.9,0-2,0-2,4.9c0,2.5,0.2,3,1.9,3h4.1
			c4.2,0,4.3,0,4.8-0.5c0.2-0.2,0.6-0.7,0.9-1.1c1.6-2,2.5-2.9,3.4-2.9c1.3,0,9,4.2,9,6.8c0,2.3-2.7,2.3-6.4,2.3H537
			c-1.7,0-1.9,0.1-1.9,4.3c0,3.2,0.1,3.4,1.9,3.4h9.3c4.7,0,4.7,0,5.6-1.3L552,35c2-2.7,2.4-3.2,3.9-3.2c1.9,0,8.2,5.4,8.2,7
			c0,2.3-2.7,2.3-6.4,2.3h-37.9c-2.3,0-9.2,0-12.6,0.3c-0.2,0-0.5,0-0.9,0.1C505.7,41.6,505.2,41.6,505,41.6z"/>
	</g>
	<g>
		<path class="st0" d="M640.2,94.4c-3.4,0-3.4-3.6-3.4-4.8c0-0.8,0-2.7,0.1-3.9c0.4-8.2,0.8-25.3,0.8-34.4c0-3.9,0-11.9,0-19.7
			c-0.9,1.1-3.1,1.1-6,1.1h-8.9c2.5,1.1,5.7,2.9,5.7,5.1c0,1.1-0.6,1.6-1.9,2.7l-0.2,0.2c-3.7,2.7-6.7,9-7.2,10.2
			c4.8,0,4.9,0,5.7-1.3l0.1-0.2c2.1-2.9,2.5-3.4,3.8-3.4c2,0,8,5.1,8,7.2c0,2.3-1.3,2.3-6.3,2.3h-12.3c-1.8,0-2,0.1-2,1.8v7.6
			c0.1,0.7,0.2,0.8,2.7,0.8c3.6,0,4,0,4.8-1.2c2.2-3.4,2.7-4.2,4.1-4.2c2.5,0,8.1,6.2,8.1,7.7c0,2.3-2.8,2.3-6.4,2.3h-10.6
			c-2,0-2.7,0.1-2.7,2c0,1.2,0.1,4.5,0.2,7.8c0.1,3.1,0.1,6,0.1,6.9c0,4.7-3.3,7.1-6.5,7.1c-2.1,0-3.1-1.2-3.1-3.7
			c0-1.1,0.1-4.9,0.3-8.9c0.1-4,0.3-8.1,0.3-9.2c0-1.7-0.6-2-2.2-2c-2.2,0-5.6,0.1-7.9,0.3c-0.2,0-0.6,0.1-1,0.1
			c-0.5,0.1-1,0.1-1.1,0.1c-0.7,0-1.1-0.4-1.6-0.9l-2-2.4c0,0-0.2-0.3-0.2-0.3c-0.2-0.3-0.4-0.6-0.4-1.1c0-0.1,0-1.2,1.3-1.2
			c1.2,0,4.2,0.2,7.2,0.4c2.7,0.2,5.6,0.3,6.5,0.3c1.2,0,1.2,0,1.3-0.6c0.3-1.1,0.3-3.6,0.3-8c0-1.6,0-1.6-4.5-1.6
			c-2,0-6.7,0.1-8.4,0.3c0,0-0.1,0-0.1,0c-0.1,0-0.5,0-0.9,0.1c-0.5,0.1-1,0.1-1.2,0.1c-1,0-1.5-0.7-1.7-1.1l-1.8-2.1l-0.2-0.3
			c-0.3-0.4-0.5-0.7-0.5-1.1c0-0.1,0-1.2,1.4-1.2c0.4,0,1.2,0.1,2.5,0.2c0.8,0.1,1.8,0.1,2,0.1c1,0,2.2,0.1,3.5,0.1
			c1.4,0.1,3,0.1,4.4,0.2c-1.7-0.7-1.9-2.8-2.3-6.2l0-0.3c-0.3-2.7-1.1-5.7-2.1-8.2c0,0,0-0.1,0-0.1c0-0.1-0.1-0.3-0.1-0.4
			c-0.1-0.4-0.2-0.6-0.2-0.9c0-0.6,0.5-1.3,1.5-1.3c1.2,0,4.6,2.6,4.9,2.8c4.6,3.6,4.9,6.7,4.9,9.8c0,1.5-1.2,4.2-3.5,5
			c0.2,0,0.4,0,0.5,0h7.7c2.3,0,2.8,0,4.3-9.4c0.1-0.6,0.2-2.3,0.4-4c0.2-1.9,0.3-3.7,0.4-4.3c0-0.2,0.1-0.4,0.1-0.5h-12.6
			c-2.3,0-9.2,0-12.6,0.3c-0.2,0-0.6,0.1-1,0.1c-0.5,0.1-1,0.1-1.2,0.1c-0.7,0-1.1-0.4-1.6-0.9l-2-2.4c-0.4-0.6-0.6-0.8-0.6-1.3
			c0-0.1,0-1.2,1.3-1.2c0.4,0,1.1,0.1,2.4,0.2c0.9,0.1,1.9,0.1,2.2,0.1c1.6,0.1,9.3,0.4,11.1,0.4c4.3,0,4.3,0,4.3-1.7V21
			c0-1.5-0.2-1.8-1.5-1.8c-1.8,0-6.5,0-8.7,0.3c0,0-0.1,0-0.1,0c-0.1,0-0.3,0-0.5,0.1c-0.5,0.1-0.7,0.1-0.9,0.1
			c-1,0-1.5-0.7-1.7-1.1l-1.9-2.2l-0.2-0.3c-0.2-0.3-0.4-0.6-0.4-1c0-0.4,0.1-1.2,1.4-1.2c0.3,0,1.1,0.1,1.9,0.1
			c0.7,0,1.5,0.1,1.7,0.1c0.4,0,1.7,0.1,3.8,0.2c2.2,0.1,4.9,0.2,5.6,0.2c1.3,0,1.5-0.3,1.5-1.7c0-0.8-0.2-3.3-0.4-5.6
			c-0.2-2.4-0.4-4-0.4-4.5c0-1.3,0.9-1.4,1.3-1.4c0.1,0,9.9,1.4,9.9,4.6c0,0.5-0.3,1.2-1.3,2.6c-0.2,0.3-0.3,0.5-0.4,0.6
			c-0.2,0.3-0.4,1.1-0.4,3.9c0,1.3,0.3,1.5,1.6,1.5c1.9,0,2.3-0.2,3.1-1.2l0.2-0.3c2.1-2.7,2.5-3.2,4-3.2c2.2,0,8,5.1,8,7
			c0,2.4-2.6,2.4-6.3,2.4h-8.2c-2.3,0-2.4,0-2.4,1.6v5.7c0,1.5,0.1,1.6,1.8,1.6c4,0,4.8-0.1,5.3-0.3c0.4-0.2,1.3-1.2,2-1.9
			c1.9-2.1,2.8-3,3.7-3c1.2,0,6.9,3.8,8.6,6.3c0-7.2-0.1-13.8-0.2-16.8c-0.1-0.8-0.4-4.6-0.4-5.4c0-1.5,0.9-1.7,1.3-1.7
			c1.4,0,3.5,0.9,5.5,1.8l0.4,0.2c1.9,0.9,2.1,0.9,3.6,0.9H664c0.9,0,0.9,0,1.6-0.8c2.6-3,3-3.5,4.2-3.5c2.7,0,8,5.4,8,8.1
			c0,1.4-0.7,1.8-2.4,3.1c-0.7,0.5-0.7,3.3-0.7,6.2c0,8.8,0,11.2-1.8,13.8c-1.4,2-5,4.5-6.6,4.5c-1,0-1.8-0.7-2-0.9
			c-0.5-0.5-1.9-2.6-2.3-3.2c-0.5-0.5-1.3-1.3-2.1-2c-2.2-2-2.6-2.4-2.6-3c0-1.3,1.6-1.3,2.4-1.3c6.2,0,6.2,0,6.4-2
			c0.2-1.7,0.2-5.8,0.2-10.2c0-4.1,0-4.1-2.9-4.1h-14.5c-2.2,0-2.6,0.1-2.7,1.8c-0.1,1.9-0.2,25.5-0.2,26.6c0,1.8,0.6,1.9,2.5,1.9
			h17.9c0.5,0,1-0.1,1.3-0.2l0.1-0.1c1.6-0.8,1.9-0.9,2.2-0.9c0.9,0,7.5,3.8,7.5,6.4c0,0.8-0.4,1.6-1.2,2.2c0,0-0.1,0.1-0.2,0.1
			c-0.6,0.3-2.5,1.3-2.7,1.5c-0.6,0.6-2.8,5.4-3.9,7.7c-0.6,1.4-1.2,2.5-1.4,3c-0.2,0.4-0.7,1.2-1.2,2.2c-0.8,1.4-2.2,3.9-2.5,4.7
			c0.8,1.4,6.1,7,14.2,10.5c3.1,1.4,3.8,1.7,3.8,2.7c0,1-0.9,1.6-1.8,1.6c-1.9,0.1-3.4,0.2-6.2,1.4c-0.1,0.1-0.5,0.3-0.9,0.5
			c-1.7,1-2.5,1.4-3.2,1.4c-1.9,0-9.3-8.2-10.9-10.3c-0.5-0.6-0.9-1.1-1.1-1.2c-0.1,0-0.4,0.3-0.6,0.5c-0.1,0.1-0.2,0.2-0.3,0.2
			c-1.7,1.5-7,5.3-7.9,5.9l-0.1,0.1c-3.2,2-3.2,2.1-3.3,5.8C646,92.3,643,94.4,640.2,94.4z M646,80.4c1.6-0.5,8.3-7.6,8.8-9.2
			c-0.2-0.7-1.5-3.6-2.4-5.7c-1.1-2.6-2.2-5-2.4-5.9c-1.4-4.4-1.6-7.1-1.9-11.7c0-0.1,0-0.1,0-0.2c-1.9,0-2.2,0.5-2.2,2.3
			c-0.1,4.2-0.1,8.5-0.1,12.6c0,1,0.1,3.8,0.1,6.5c0,2.6,0.1,5.1,0.1,6L646,80.4C645.9,80.4,646,80.4,646,80.4z M651.6,47.8
			c0,4.6,5.7,15.1,7.6,16.5c1.6-1.8,5.7-13.4,5.7-15.8c0-0.7,0-0.8-2.4-0.8H652C651.8,47.7,651.7,47.7,651.6,47.8
			C651.6,47.8,651.6,47.8,651.6,47.8z"/>
	</g>
</g>
</svg>
