<?xml version="1.0" encoding="utf-8"?>
<!-- Generator: Adobe Illustrator 22.0.1, SVG Export Plug-In . SVG Version: 6.00 Build 0)  -->
<svg version="1.1" id="レイヤー_1" xmlns="http://www.w3.org/2000/svg" xmlns:xlink="http://www.w3.org/1999/xlink" x="0px"
	 y="0px" viewBox="0 0 793.4 168.3" style="enable-background:new 0 0 793.4 168.3;" xml:space="preserve">
<style type="text/css">
	.st0{fill:#FFFFFF;}
</style>
<g>
	<g>
		<path class="st0" d="M35.5,109.2c-4.5,0-4.5-4.6-4.5-6.3c0-1.4,0.1-5.5,0.2-9.8c0.1-4.3,0.2-8.8,0.2-10.4c0-1.8-0.1-2.9-0.2-3.9
			c0,0,0-0.1,0-0.1c0,0-0.1-0.3-0.1-0.5c-0.1-0.8-0.3-1.4-0.3-1.8c0-1.2,0.8-2.1,2-2.1c1.5,0,3.1,1,6.7,3.5c2.3,1.5,4.1,1.5,5.9,1.5
			H70c2.2,0,4.4-0.1,4.8-0.6c1-1.7,1.8-2.9,3.7-2.9c1.3,0,9.1,4.4,9.1,7.3c0,0.7-0.6,1.4-1.7,2.7c-0.3,0.3-0.8,0.9-0.9,1
			c-0.4,0.6-0.4,3.5-0.4,14.2c0,4.8-2.3,7.6-6.3,7.6c-3.6,0-4.1-3-4.3-4.3c0-0.2-0.2-1.5-2.1-1.5H44.1c-1.4,0-2,0.2-2.1,0.9
			C41,107.7,37.9,109.2,35.5,109.2z M44.1,84.7c-2.4,0-2.6,0-2.6,5.1c0,7.7,0,7.7,2.6,7.7h27.8c2.4,0,2.7,0,2.7-7.2
			c0-5.6-0.1-5.6-2.6-5.6H44.1z M7.6,104.3c-0.8,0-1.5-0.6-1.5-1.4c0-1.1,1.8-2.8,2.3-3.3c12.8-13.5,15.5-32.1,15.5-45.4
			c0-1.1-0.1-4-0.2-6.9c-0.1-2.8-0.2-5.4-0.2-6.3c0-0.7,0.1-1.3,0.3-1.7c-11.6,6.8-21.3,10.1-22,10.1c-1,0-1.7-0.7-1.7-1.5
			c0-0.8,0-0.8,8.6-6.6c2-1.3,3.7-2.5,4.4-3c22.2-16,32.6-31.9,33.1-34.1C46.7,2.4,47,1,49,1c0.7,0,11.9,5,11.9,8.3
			c0,0.4-0.2,0.8-0.5,1.4c-0.1,0.2-0.2,0.4-0.2,0.5c0.6,3.3,23.6,21.6,45.2,25.4c0.1,0,0.1,0,0.2,0c0.1,0,0.4,0.1,0.7,0.1
			c2.9,0.6,4,0.8,4,2c0,1.1-1.1,1.4-3.2,2c-0.4,0.1-0.8,0.2-1,0.3c-2,1-4.5,2.6-5.4,3.8c-1.6,2.3-2.1,3-3.7,3
			c-3,0-16.1-7.9-27.6-18.8c1.5,1.7,2.7,3.5,2.7,4.4c0,2.6-2.1,2.6-4.8,2.6H47.8c-1.8,0-5.2,0-7.8,0.2c-0.2,0-0.7,0.1-1.1,0.2
			c-0.6,0.1-0.7,0.2-0.9,0.2c-1,0-1.4-0.8-1.7-1.5L35,32.6c-0.1-0.1-0.1-0.2-0.2-0.4c-3.2,2.4-6.5,4.5-9.6,6.4c0,0,0,0,0,0
			c0.9,0,2.4,0.7,5.4,2.3c0.7,0.4,1.4,0.8,1.7,0.8c1.2,0.4,2.6,0.5,3.5,0.5h30.3c5,0,5.2-0.1,5.5-0.5l0.1-0.2c1.3-2,1.6-2.7,3-2.7
			c1.5,0,9,4.9,9,7.3c0,0.7-0.4,1.3-1.5,2.8c-0.3,0.4-0.7,0.9-0.8,1.1c-0.3,0.7-0.4,1-0.4,9c0,0.2,0.1,1.9,0.1,3.6
			c0.1,2,0.1,4.1,0.1,4.4c0,4.2-1.5,8.6-5.8,8.6c-2,0-2.4-0.7-4.3-3.8c-0.2-0.4-1.3-0.4-1.8-0.4H33.6c-2,0-2,0-2.8,3.3
			C25.8,94.4,8.4,104.3,7.6,104.3z M35.8,59.2c-2.1,0-2.6,0-2.6,5.3c0,1.2,0.4,1.4,2.2,1.4H69c2.2,0,2.2,0,2.2-3
			c0-3.7,0-3.7-2.2-3.7H35.8z M35.9,47.6c-1.8,0-2,0-2,4c0,2,0.1,2.3,2,2.3h33.1c1.7,0,2-0.4,2-1.3c0-5,0-5-2-5H35.9z M37.9,30.2
			c0.5,0.1,0.9,0.2,1.1,0.2c0,0,0.1,0,0.2,0c1.1,0.2,4.8,0.3,9,0.3h8.1c1.7,0,2.3-0.1,2.5-0.1c0,0,0,0,0,0c2.9-4.7,3.4-5.6,4.9-5.6
			c0.7,0,1.8,0.7,3,1.6c-3.6-3.7-7-7.6-9.7-11.7c-0.7-1.1-1.2-1.5-1.6-1.5c-1.2,0-2.4,1.5-3.7,3.1c-4.2,5.1-9.1,9.6-14.1,13.5
			C37.7,30.1,37.8,30.1,37.9,30.2z"/>
	</g>
	<g>
		<path class="st0" d="M170.8,108.8c-2.8,0-3.4-1.5-3.8-3c-0.8-2.4-1.8-3.3-4.8-4.9c-1.5-0.7-2.1-1.1-2.1-2c0-0.9,0.8-1.5,1.5-1.5
			c0.2,0,0.3,0,1.7,0.3c1.6,0.3,4.8,1,5.5,1c6.7,0,10.8-0.8,10.8-12.3c0-1.4-0.3-1.5-2.3-1.5h-9.9c-1.1,0-1.2,0-3.3,3.5l-0.2,0.3
			c-6,9.7-13.6,15.7-18.7,18.1c-0.6,0.3-3.5,1.9-4.2,1.9c-1.3,0-1.6-0.9-1.6-1.4s0-0.5,3.7-4.4c2.1-2.2,4.8-5,5.5-5.8
			c9.2-11.2,11.2-22.1,11.2-24.2c0-0.2,0-0.5-1-0.5c-4.2,0-8.7,0.1-12.5,0.3c-0.3,0-1.4,0.1-2.1,0.1c-0.6,0.1-1.2,0.1-1.3,0.1
			c-1.1,0-1.7-0.7-2-1.2l-2.3-2.6l-0.2-0.2c-0.3-0.4-0.6-0.8-0.6-1.3c0-0.7,0.5-1.4,1.6-1.4c0.2,0,0.8,0,2.4,0.2
			c1.8,0.1,4.2,0.3,4.9,0.3l0.3,0c5.5,0.2,8.3,0.3,12.9,0.3c1.5,0,1.6-0.4,1.6-1.9c0-0.9,0-3.3-0.4-5.1c0,0,0-0.1,0-0.1
			c0-0.1-0.1-0.3-0.2-0.5c-0.3-0.7-0.4-1.1-0.4-1.5c0-0.4,0.2-1.6,2.1-1.6c1.7,0,10.9,1.9,10.9,5.1c0,1.1-0.6,1.5-1.8,2.3
			c-0.3,0.3-0.4,0.4-0.4,1.6c0,1.1,0.1,1.6,1.5,1.6h7.8c2.8,0,4.4,0,5.2-0.2c0.3-0.2,1-1.1,1.6-1.8c2-2.4,3-3.3,4-3.3
			c2.3,0,8,5.6,8,7.9c0,2.8-3,2.8-7.4,2.8h-23.6c1.2,0.8,3,2.1,3,4.1c0,0.8-0.6,1.5-1.8,2.6c-0.1,0.1-0.3,0.3-0.5,0.5
			c0,0,9.2,0,9.2,0c1.5,0,1.5,0,2.4-0.9c0.9-0.8,1.9-1.6,3.1-1.6c1.6,0,8.3,3.4,8.3,5.7c0,0.8-0.7,1.5-2,2.6
			c-0.3,0.2-0.7,0.6-0.8,0.7c0,0-0.1,0.1-0.1,0.1c-0.2,0.5-0.6,3.4-0.8,4.8c-0.1,0.9-0.2,1.7-0.3,2c-1.2,6.5-2.6,11.3-10.3,14.2
			C175,108.5,172,108.8,170.8,108.8z M185.5,108.6c-0.9,0-1.9-0.5-1.9-1.5c0-0.6,0-0.9,4.9-4.2c15.8-12.5,21.1-23.2,21.1-25
			c0-1.2-0.2-1.9-1.4-5.1c-0.4-0.9-4.8-10.7-7.2-31.4c-0.6,0.9-1.1,1.8-1.3,2c-1.9,3.3-7.9,11.7-9.9,11.7c-0.5,0-0.8-0.1-1.1-0.4
			c-1.2,1.9-3,2.9-4.8,2.9c-0.7,0-1.4-0.4-2.2-0.9l-0.4-0.2c-0.4-0.2-1.1-0.4-1.9-0.4h-26.3c-1.6,0-1.6,0.1-2.2,0.9
			c-1.8,2.3-3.9,2.5-4.6,2.5c-2.2,0-4.4-1.8-4.4-5.2c0-1.3,0.1-4.7,0.2-8c0.1-3.1,0.2-6,0.2-7c0-3.4-0.5-8.2-1.1-11.4
			c0-0.1,0-0.2,0-0.2c0,0-0.1-0.2-0.1-0.5c-0.1-0.5-0.2-0.8-0.2-1.1c0-1,0.7-2,2-2c0.8,0,3.9,0.9,6.9,2.6c0.9,0.5,1.9,0.8,3.3,0.8
			h6.6c1.3,0,1.9-0.2,1.9-1.6c0-2.5,0-5.2-0.2-5.7c-0.2-0.5-0.3-0.6-4.5-0.6c-6.1,0-10.5,0.2-12.4,0.3c-0.2,0-0.9,0.1-1.3,0.1
			c-0.5,0.1-1,0.1-1.2,0.1c-0.7,0-1.4-0.4-2-1.2l-2.3-2.6c0,0-0.2-0.3-0.2-0.3c-0.2-0.3-0.5-0.7-0.5-1.2c0-0.1,0-1.4,1.5-1.4
			c0.7,0,3.5,0.2,4.4,0.4c0.3,0,1.2,0,2.4,0.1c3.4,0.1,9,0.4,12,0.4c3.8,0,4-0.2,4-1.4c0-1.4-0.1-4.3-0.3-5.2c0-0.2-0.2-0.7-0.4-1.2
			c-0.4-1.3-0.6-1.9-0.6-2.3c0-0.7,0.3-2,2.4-2c0.1,0,10.7,0.6,10.7,4.7c0,0.7-0.5,1.3-1.5,2.6c-0.1,0.1-0.2,0.3-0.3,0.4
			c-0.3,0.7-0.5,1.8-0.5,2.9c0,1.4,0.2,1.6,1.9,1.6h7.1c5.2,0,5.2,0,6.3-1.5c1.7-2.5,2.7-3.7,4.4-3.7c2.5,0,8.5,5.5,8.5,7.8
			c0,2.8-3.1,2.8-7.4,2.8h-19.1c-1.9,0-2,0.1-2,3.5c0,4.4,0,4.4,2,4.4h6.5c0.8,0,1.3,0,2.3-1.3l0.5-0.6c0.9-1,1.6-1.9,3-1.9
			c2.1,0,7.7,3.4,7.7,5.9c0,1.5-1,1.9-2.7,2.6c-0.2,0.1-0.4,0.3-0.4,1.7c0,1.2,0.2,4.8,0.3,8.2c0.1,3,0.2,5.8,0.3,7.2
			c0.1-0.3,0.3-0.6,0.4-1c1.1-2.4,2.3-5.2,2.6-5.8c5.7-13.3,7.1-19.1,10.1-31.9c0.2-0.7,0.6-2.5,0.6-3.5c0-0.2-0.2-0.9-0.4-1.4
			c-0.3-1-0.5-1.6-0.5-2c0-1,0.8-1.9,1.7-1.9c0.7,0,13.3,4.2,13.3,7.7c0,0.9-0.8,1.6-2.4,2.9c-0.4,0.3-1,0.8-1.1,1c0,0,0,0,0,0.1
			c-0.1,0.2-0.7,1.2-2.6,6.3c-0.6,1.3-3.3,7.5-4,9.3c0.2,0,0.4,0,0.6,0h14.2c1.6,0,3.7,0,4.5-0.2c0.3-0.3,1.3-1.6,1.9-2.5
			c1.8-2.6,2.8-4,4-4c2.2,0,10.7,7.1,10.7,9.5c0,2.7-1.6,2.7-7,2.7h-3.4c0.1,0,0.2,0.1,0.2,0.1c0.1,0,0.1,0.1,0.2,0.1
			c0.1,0.1,0.2,0.1,0.3,0.2c0.9,0.6,2.5,1.6,2.5,3.2c0,0.8-0.7,1.6-2.4,3c-0.1,0.1-0.3,0.2-0.3,0.3c-0.6,0.8-1.2,1.7-2.1,5.2
			c-1.8,7.8-4.3,15.7-7.8,24.1c-0.7,1.6-2.5,6-2.6,6.7c0,2.5,9.4,12.7,19.4,17.7l1.6,0.8c5,2.5,5.4,2.7,5.4,4c0,1.4-1.1,1.5-2.7,1.6
			c0,0-0.2,0-0.2,0c-1.3,0-7.2,0.6-8.8,1.8l-0.6,0.5c-1.8,1.5-2.2,1.8-3.2,1.8c-3.6,0-13.7-14.6-13.8-14.7c-1.8-2.9-2.6-3.7-2.9-3.9
			c-0.4,0.2-1.1,1-2.9,3.5l-0.1,0.1C202.9,103.1,187.1,108.6,185.5,108.6z M205.5,34.7c-0.2,0-0.6,0-0.7,0.1c0,0-0.1,0.2-0.1,0.6
			c0,8.3,7.9,29.5,10.4,32.8c2.2-2.8,6.3-20.6,6.3-32c0-1.4-0.1-1.5-2.4-1.5H205.5z M172.6,44.5c-1.9,0-2,0.4-2,2.8
			c0,3.3,0.1,3.5,2,3.5h5.7c1.9,0,2-0.5,2-2.8c0-3.3-0.1-3.5-2-3.5H172.6z M153.8,44.5c-1.8,0-1.9,0-1.9,4.1c0,2,0.4,2.2,1.9,2.2
			h5.9c1.8,0,1.9,0,1.9-4.1c0-2-0.4-2.2-1.9-2.2H153.8z M172.4,32.9c-1.7,0-1.9,0.2-1.9,2.8c0,3.4,0,3.4,1.9,3.4h6
			c1.9,0,1.9-0.2,1.9-2.8c0-3.4,0-3.4-1.9-3.4H172.4z M153.8,32.9c-2,0-2,0-2,3.3c0,2.8,0.1,2.9,2,2.9h5.9c1.8,0,1.9,0,1.9-3.3
			c0-2.9,0-2.9-1.9-2.9H153.8z M183.1,13.8c-2.4,0-3.7-1.6-5.5-4.3C177.3,9,175.4,7,174,5.6c-2.8-2.8-2.8-2.8-2.8-3.4
			c0-0.1,0-1.3,1.6-1.3c1.5,0,5.3,0.9,6.8,1.5c5.7,2.1,7.7,3.9,7.7,6.8C187.3,12,185.2,13.8,183.1,13.8z"/>
	</g>
	<g>
		<path class="st0" d="M347,105.5c-28.1,0-29.3-4.4-29.3-21.4c0-1.1,0-3.3,0-5.9c0-7.5-0.1-18.9,0-21.9c0-0.9-0.2-1.1-0.2-1.1
			c-0.6,0.1-2.7,1.1-6.3,3.2c-1.2,0.7-1.2,0.7-1.5,0.7c-0.4,0-0.7-0.1-0.9-0.2c-0.1,0-0.2-0.1-0.4-0.2c0,0-0.1,0-0.1-0.1l-2.9-1.6
			c-0.8-0.4-1.3-1-1.3-1.7c0-0.5,0.3-0.9,0.8-1.1c2.8-1,6.8-2.7,8.6-3.4c4.3-1.8,4.3-1.8,4.3-8.5c0-1.9,0-7.1-0.3-14.7
			c0-0.3-0.1-1.2-0.3-2.1c-0.3-2.5-0.5-4.2-0.5-4.9c0-1.9,0.9-2.3,1.7-2.3c0.5,0,7.9,2,7.9,2c2.1,0.5,4.1,1.1,4.1,3.1
			c0,0.6-0.4,1.2-1.3,2.4c-0.2,0.3-0.4,0.5-0.5,0.6c-0.5,1.5-0.7,2.7-0.7,6.9c0,0.7,0,2.6,0.1,4.6c0,2,0.1,3.9,0.1,4.6
			c0,1.5,0.3,1.5,0.7,1.5c0.2,0,0.6-0.2,1.4-0.5l6.9-3c1.8-0.8,2-2.1,2-4.7c0-16.5-0.1-21.9-0.6-27.3c0-0.1-0.1-0.5-0.2-1
			c-0.4-2.1-0.6-3.3-0.6-3.8c0-1.9,1.1-2.2,1.7-2.2c0.8,0,2.8,0.6,6.6,1.7c1.1,0.3,2.1,0.7,2.4,0.7c2.4,0.7,3.7,1.7,3.7,3
			c0,0.8-0.7,1.5-1.8,2.8c-0.3,0.3-0.7,0.8-0.9,1c-0.3,1.6-0.4,4.3-0.4,7.7v14.1c0,1.4,0.2,2.1,0.6,2.1c0.5,0,0.9-0.1,1.9-0.5
			l7.1-3.1c2.5-1.1,2.7-1.7,3.5-4.8l0.3-0.9c0.7-2.3,1-3.4,2.7-3.4c0.6,0,1.4,0.4,4.2,2.1c0.6,0.3,1,0.6,1.3,0.8l1,0.7
			c3.4,2.3,4,2.7,4,4.2c0,0.8-0.6,1.8-1.8,3.5c-0.5,0.7-1.2,1.7-1.3,2.1c-0.4,1.9-0.4,7.6-0.5,13.6c-0.1,9.1-0.1,18.6-1.2,21.6
			c-1.9,5.1-8,7.3-10.7,7.3c-3.4,0-3.8-1.6-3.9-3.8c-0.2-2.3-3.4-5-5.3-5.5c0,0-0.1,0-0.1,0c-0.3-0.1-1.1-0.3-1.5-0.9
			c0.1,6.1,0.2,11.6,0.2,13.6c0,1.6,0,6.6-7,6.6c-2.6,0-4-1.5-4-4.4c0-0.8,0.1-4.2,0.2-8.5c0.2-5.9,0.4-13.2,0.4-15.5
			c0-4.7,0-8.7-0.1-12.2c0-0.5,0-1.3-0.1-1.5c0,0-0.1,0-0.1,0c0,0-0.3,0.1-0.8,0.3l-7.2,3.2c-2.7,1.2-2.8,2.5-2.8,4.8
			c0,26,0,26.5,0.1,29.3c0.3,12.4,0.3,12.6,20.4,12.6c20.4,0,20.7-1.2,23.5-12.3c0.1-0.4,0.2-1.1,0.4-2c1.5-8.5,1.9-9.4,3.2-9.4
			c1.5,0,2.1,2.2,2.1,4.2c0,4.2,1,13.2,2.5,14.6c1.9,1.9,2.3,2.3,2.3,3.5c0,2.7-3.4,7.1-8,9.1C371,104.9,362.6,105.5,347,105.5z
			 M360.5,35.7c-0.2,0-0.6,0.2-1.3,0.5l-7,3.1c-3.4,1.5-3.5,1.7-3.5,10.8c0,2.4,0.1,8.8,0.2,15.2c0.3-0.4,0.8-0.6,1.3-0.6
			c0.7,0,2.4,0.1,4.3,0.2c1.6,0.1,3.2,0.2,3.8,0.2c2.5,0,2.5-0.2,2.7-1.1c0.3-2.5,0.6-20.7,0.6-24C361.6,35.7,361.5,35.7,360.5,35.7
			z M282.2,101.2c-2.4,0-9.1-9.7-9.1-11.5c0-1.8,2.1-2.2,2.9-2.3c0.6-0.1,5.2-1.2,6.4-1.6c5.9-1.4,6.8-1.8,7.1-2.4
			c0.1-1.6,0.2-15.8,0.2-37.4c0-2.6-0.3-2.8-2-2.8c-1.1,0-4.6,0-6.7,0.2c-0.3,0-0.9,0.1-1.5,0.1c-0.7,0.1-1.5,0.1-1.6,0.1
			c-1,0-1.5-0.7-1.9-1.2l-2-2.7l-0.2-0.3c-0.2-0.3-0.5-0.7-0.5-1.2c0-0.1,0-1.4,1.6-1.4c0.2,0,0.8,0.1,1.3,0.1
			c0.5,0.1,0.9,0.1,1.1,0.1c2.3,0.2,7.5,0.5,10.2,0.5c1.7,0,1.9-0.3,2-0.8c0-0.2,0.1-2,0.1-15.9c0-1.4-0.2-9.3-0.3-11
			c0-0.2-0.1-0.6-0.1-1.1c-0.1-0.8-0.2-1.4-0.2-1.7c0-1.2,0.9-2.1,2.1-2.1c0.5,0,12.1,2.3,12.1,5.3c0,0.8-0.6,1.5-1.6,2.6
			c-0.2,0.2-0.5,0.6-0.6,0.7c-0.1,0.3-0.9,2.6-0.9,18.7c0,2.6,0,4.6,0.2,5.2c0,0,0.1,0,0.2,0c1.1,0,1.5-0.2,2.7-1.7
			c2.3-3.1,2.9-4,4.4-4c1.8,0,9,6.5,9,8.7c0,2.4-1.5,2.4-6,2.4h-8.1c-1.5,0-1.9,0.6-2,0.9c-0.2,1.9-0.3,24.5-0.3,27.7
			c0,0.4,0,1.8,0.1,3.2c0,1.6,0.1,3.4,0.1,4c0,1,0.2,1.6,0.5,1.6c0.8-0.1,6.3-1.8,9.2-2.8c3.7-1.2,3.8-1.2,4-1.2
			c1.2,0,1.7,0.8,1.7,1.5c0,1.6-2.7,3.6-20.3,13.9c-4.3,2.5-8.4,4.9-9.5,5.8c-0.1,0.1-0.1,0.2-0.2,0.3
			C284,100.2,283.2,101.2,282.2,101.2z"/>
	</g>
	<g>
		<path class="st0" d="M462.5,110c-0.9,0-1.5-0.6-1.5-1.5c0-0.7,0.3-1.1,3.7-3.6c0.3-0.2,0.6-0.4,0.7-0.5C478.8,93.3,487,82,487,80
			c0-1.1-0.3-2-1-3.8c-4.5-12.4-5.7-21.3-7.3-38.8c-0.2-2.3-0.6-2.4-2.3-2.4h-6.6c-2.6,0-10.5,0-14.6,0.3c-0.3,0-0.9,0.1-1.3,0.1
			c-0.5,0.1-1,0.1-1.2,0.1c-1.1,0-1.7-0.7-2-1.2l-2.2-2.6c0,0,0-0.1-0.1-0.1c-0.1-0.1-0.1-0.2-0.2-0.2c-0.2-0.3-0.6-0.6-0.6-1.2
			c0-0.7,0.5-1.4,1.6-1.4c0.4,0,1.4,0.1,2.8,0.2c0.9,0.1,2,0.2,2.3,0.2l0.7,0c5.1,0.2,10,0.4,15.2,0.4h6.2c1.7,0,1.9-0.4,1.9-3
			c0-7.2-0.5-18.4-0.7-20.5c-0.1-0.5-0.3-1.6-0.5-2.5c-0.1-0.6-0.3-1.2-0.3-1.5c0-0.1,0-0.3,0-0.4c0.3-1.6,1.3-1.8,2.3-1.8
			c0.1,0,13.3,1.1,13.3,5c0,0.8-0.6,1.5-1.9,3.1c-0.3,0.4-0.8,1-0.9,1.1c-0.5,1.2-0.8,10.5-0.8,16.6c0,3.5,0.1,3.8,2.3,3.8h4.4
			c6,0,6,0,6.6-1.5c1.6-3.4,3-5.6,4.8-5.6c1.6,0,10,7.6,10,9.7c0,2.8-3,2.8-7.4,2.8h-18.1c-2.3,0-2.3,0.7-2.3,2.7
			c0,11,3.6,25,4.8,28.6c0.2,0.5,0.4,0.8,0.5,1c2-2.2,7.1-16.8,7.7-21.6c0.3-2.5,0.5-4.4,2.5-4.4c0.9,0,4.1,1.5,6.7,2.8
			c3.6,1.9,4.5,2.3,4.5,4.1c0,1.5-0.8,2-2.9,3.3c-0.5,0.3-0.9,0.9-1.5,2.5c-4.5,10.6-5.1,11.8-11.2,22c-0.3,0.6-0.8,1.3-0.8,2.4
			c0,2.2,6.4,11.4,8.2,12.5c1.1-0.5,4.3-4.6,8.2-12.6c1.2-2.7,1.4-3.2,2.6-3.2c0.8,0,1.6,0.5,1.6,1.7c0,1.5-1.1,5.7-2.7,12
			c-0.9,3.6-2.1,8.1-2.1,8.9c0,0.4,0.5,2,0.8,3c0.5,1.8,0.8,2.8,0.8,3.4c0,3.1-2.1,5.2-5.1,5.2c-8,0-19.4-19.3-19.5-19.5
			c-0.3-0.5-0.8-0.9-1-0.9c-0.3,0-0.6,0.3-1.1,0.8l-0.2,0.2c-9.6,10.7-19.1,16.1-21.8,17.5C463.1,110,462.8,110,462.5,110z
			 M445.7,103.1c-1.6,0-2-0.7-4-4.2l-0.2-0.4c0,0-4.7-7.8-4.7-8.6c0-1,0.8-2,2.6-2c0.5,0,1.4,0.1,2.7,0.2c0.7,0.1,1.6,0.1,1.8,0.1
			c5.2,0,28.1-5.7,36.3-8c0.2,0,0.5-0.2,0.9-0.3c1.1-0.4,1.6-0.6,2-0.6c0.9,0,1.5,0.6,1.5,1.5c0,1.4-1.1,2.4-22.7,12.6
			c-5.4,2.6-10.6,5-11.7,5.8c-0.2,0.1-0.7,0.8-1.2,1.2C447.3,102.4,446.6,103.1,445.7,103.1z M414.9,92.9c-1.8,0-2.5-1.6-2.8-2.6
			c0-0.1-3.9-9.9-3.9-10.9c0-1.4,1-2.3,2.4-2.3c0.3,0,0.8,0.1,1.8,0.2c0.5,0.1,1.3,0.2,1.4,0.2c1.2,0,6.3-0.7,7.8-0.9
			c2.1-0.4,2.1-0.4,2.1-11.4c0-21.3-0.2-24.1-0.3-24.5c-0.2-0.4-0.6-0.7-1.2-0.7c-0.5,0-2.3,0.2-3.7,0.3c-1.6,0.2-2.5,0.3-2.8,0.3
			c-1,0-1.5-0.7-1.9-1.2l-2.3-2.7c0,0-0.2-0.3-0.2-0.3c-0.2-0.3-0.5-0.7-0.5-1.2c0-0.8,0.6-1.4,1.5-1.4c0.7,0,2.6,0.2,4.6,0.3
			c1.9,0.2,4.1,0.4,4.8,0.4c1.8,0,2-0.3,2-5.2c0-3.5,0-14.2-0.3-17.6c0-0.2-0.1-0.8-0.3-1.5c-0.4-2-0.7-3.5-0.7-4.1
			c0-1,0.6-2.2,2.4-2.2c0.1,0,0.1,0,0.2,0c1.7,0.2,7.4,1.4,10.2,2.1c1.7,0.3,2.6,1.3,2.6,2.8c0,0.8-0.6,1.4-1.9,2.7
			c-0.3,0.3-0.8,0.8-1,1c-0.4,1.7-0.7,14.6-0.7,17.7c0,1.3,0,3.2,0.3,3.5v0c0,0,0,0,0.1,0c0.5,0,1.1-0.8,1.4-1.6
			c0-0.1,0.1-0.1,0.1-0.2c0-0.1,0.1-0.2,0.2-0.3c0.6-1.2,1.8-3.5,3.7-3.5c2.5,0,8.5,6.4,8.5,9.1c0,2.9-3.1,2.9-7.4,2.9H437
			c-1.3,0-2.4,0.1-2.8,0.7c-0.1,0.3-0.3,1.8-0.3,9.1c0,10.9,0.1,22.3,0.2,23.3c0.2,0.6,0.4,0.9,1.2,0.9c0.7,0,4.8-1,7-1.5
			c2.8-0.7,3.2-0.7,3.5-0.7c0.6,0,1,0.2,1.3,0.6c0-0.2,0-0.3,0-0.5c0.1-1.8,0.1-3.7,0.1-4.3c0-2-0.1-16.8-0.2-19
			c0-0.3-0.2-1.5-0.3-2.3c-0.2-1.5-0.3-2.4-0.3-2.9c0-0.5,0.2-2.3,2.7-2.3c1.5,0,3.7,1.1,5.9,2.3c0,0,0.1,0.1,0.1,0.1
			c2.5,1.5,3.3,1.5,5.1,1.5h2.8c1.5,0,2.2,0,2.9-1.4c0.3-0.6,1.1-2.5,3.2-2.5c0.4,0,9.8,3,9.8,6.2c0,1.6-1.5,2.8-2.2,3.3
			c0,0-0.1,0-0.1,0.1c-1.1,0.7-1.2,0.8-1.2,9.6c0,0.8,0.1,3,0.3,5.1c0.2,2.4,0.3,4.7,0.3,5.6c0,2,0,7.2-6.2,7.2
			c-3.7,0-4.1-1.8-4.7-4.2c0,0,0-0.1,0-0.1c-0.1-0.7-0.4-0.8-1.7-0.8h-3.8c-1.6,0-1.7,0.3-1.9,1.7c-0.4,5.1-3.9,6.2-6.7,6.2
			c-2.4,0-4.1-1.9-4.1-4.7c0-0.4,0-1.1,0-2.1c-1,1.5-4.8,3.5-16.2,8.9c-5,2.4-11.2,5.3-12,6.2C417.1,92.2,416.6,92.9,414.9,92.9z
			 M457.6,67.2c0.2,0.3,0.7,0.5,1.7,0.5h4.4c2.1,0,2.1,0,2.1-10.2c0-7,0-7-2-7h-4.5c-1.9,0-1.9,0-1.9,5.8
			C457.5,62,457.5,66.3,457.6,67.2z M507.5,20.2c-1.8,0-2.4-0.7-5.6-4.9l-0.1-0.1c-2-2.6-2.9-3.6-5.4-5.8c-0.4-0.3-1.5-1-1.5-1.9
			c0-0.8,0.5-1.7,2-1.7c0.2,0,0.9,0,1.6-0.1c0.7,0,1.5-0.1,1.7-0.1c8.1,0,10.7,3.8,11.5,6.9c0.4,1.3,0.2,4.2-1.2,6
			C509.8,19.7,508.7,20.2,507.5,20.2z"/>
	</g>
	<g>
		<path class="st0" d="M566,109.5c-1.6,0-3.3-1.1-3.3-4.1c0-1.4,0.2-5.1,0.4-8.7c0.2-3.2,0.3-6.5,0.3-7.6
			c0.5-17.3,1.3-48.5,1.3-62.8c0-7.4-0.1-9.2-0.6-17.7L564,7.7c-0.1-1.1-0.2-3.4-0.2-3.6c0-1.5,0.5-2.2,1.6-2.2
			c0.7,0,8.5,1.5,8.8,1.5c1.5,0.3,3.2,0.8,3.5,2.7c0.2,1.2-0.5,2.5-1.9,3.7c-0.9,0.9-1.1,1.4-1.2,3.3c-0.2,7.9-0.9,41.3-0.9,46.7
			v44.2c0,0,0,0.1,0,0.1C573.2,108.1,567.4,109.5,566,109.5z M633.4,109.2c-1.3,0-2-1.1-2.3-1.6c-1-1.5-2.5-2.5-3.5-3.2l-0.1-0.1
			c-0.1,0-0.3-0.1-0.5-0.2c-2.1-0.9-3.2-1.3-3.2-2.4c0-1.2,1.2-1.8,2.5-1.9c2.1-0.2,5-0.8,6.5-1.6c0.6-0.4,0.8-0.4,0.8-8.9
			c0-1.3-0.5-1.6-2.2-1.6h-26.6c-1.7,0-2,0.4-2.2,1.2c0,0.3-0.1,4-0.1,13c0,4.4-2.7,7.2-7,7.2c-3,0-3.6-1.5-3.6-4.3
			c0-0.6,0.1-2.2,0.3-4c0.1-1.7,0.3-3.5,0.3-4.1c0.4-8.3,0.6-18.2,0.6-30.3c0-0.8-0.1-3.3-0.2-5.6c-0.1-2.5-0.2-5.1-0.2-6
			c0-0.6,0-2.4,2.1-2.4c0.7,0,1.9,0.4,4.2,1.2c1,0.4,2.4,0.8,2.7,0.9c0.1,0,0.2,0,0.2,0.1c1.1,0.4,2.2,0.5,3.6,0.5h25.7
			c1.7,0,2.3-0.5,2.7-0.9c1.5-1.7,2.1-2.3,3.6-2.3c1.1,0,1.8,0.3,5.9,2.6c1.9,1.1,3,1.8,3,3.7c0,0.9-0.4,1.8-1.2,2.6
			c-0.5,0.5-1.1,1.2-1.5,1.6c-0.1,0.1-0.1,0.1-0.1,0.2c-0.1,0.4-0.3,2.6-0.3,12c0,1.6,0.2,6.3,0.3,11.3c0.2,5.3,0.4,10.7,0.4,12.7
			C643.9,105.2,636,109.2,633.4,109.2z M604.4,73.6c-1.6,0-1.9,0.4-1.9,6c0,2,0,2.6,2.2,2.6h26.6c2.2,0,2.2-0.5,2.2-2.8
			c0-5.8-0.1-5.8-2.1-5.8H604.4z M604.8,60.3c-1.9,0-2.1,0.4-2.1,4.2c0,3.3,0.2,3.7,1.9,3.7h26.7c1.6,0,2.1-0.4,2.1-1.6
			c0-6.3-0.2-6.3-2.1-6.3H604.8z M552.6,56.2c-3.2,0-5.1-2.6-5.1-5c0-2.3,0.7-3.2,3.8-6.7l0.5-0.5c2-2.4,4.3-7.5,4.5-12.6
			c0.3-2.6,1.5-2.9,2-2.9c3.2,0,3.3,11,3.3,11.5C561.5,47.8,558.7,56.2,552.6,56.2z M587.2,48.4c-0.8,0-1.3-0.5-1.9-1l-2.3-2.8
			c-0.5-0.7-0.7-0.9-0.7-1.6c-3.8,0-4-1.6-5.2-9.3c-0.3-1.9-0.7-3.2-2.1-6.1c-0.1-0.3-0.6-1.2-0.6-2.1c0-1.1,0.8-1.9,2-1.9
			c0.3,0,0.5,0,0.8,0.1c1.8,0.4,11,5.5,11,12.2c0,2.5-0.9,4.7-2.4,5.9c0.2,0,0.5,0,0.7,0.1c1,0.1,2.1,0.2,2.5,0.2
			c3.2,0.2,9.2,0.5,16,0.5h5.1c2.3,0,2.3,0,2.3-6.9c0-1.7-0.1-2.1-3-2.1c-0.8,0-8.8,0.1-11.8,0.3c-0.3,0-0.7,0.1-1.2,0.1
			c-0.6,0.1-1.2,0.1-1.3,0.1c-1.1,0-1.7-0.7-2-1.2l-2.2-2.6c-0.5-0.5-0.8-0.8-0.8-1.6c0-0.5,0.3-1.4,1.6-1.4c0.3,0,1,0.1,2,0.2
			c0.8,0.1,1.8,0.2,2.1,0.2c0.1,0,0.1,0,0.2,0c0.8,0.1,12.5,0.5,15,0.5c1.5,0,1.7,0,1.7-7.4c0-1.4-0.5-1.7-2.4-1.7h-4.4
			c-2.6,0-10.6,0-14.7,0.3c-0.3,0-0.6,0.1-1,0.1c-0.7,0.1-1.2,0.1-1.5,0.1c-0.8,0-1.3-0.5-1.9-1c0,0-0.1-0.1-0.1-0.1l-2.2-2.7
			c-0.5-0.7-0.7-0.9-0.7-1.6c0-0.7,0.5-1.4,1.5-1.4c0.5,0,1.5,0.1,2.7,0.2c1,0.1,2.1,0.2,2.5,0.2c3.2,0.2,9.2,0.5,16,0.5h4
			c2.2,0,2.2,0,2.2-6.4c0-0.2-0.2-1.2-0.3-1.8c-0.2-1.1-0.3-1.9-0.3-2.2c0-1.6,1.1-1.7,1.6-1.7c2.3,0,6,0.7,8.8,1.4
			c2.6,0.4,2.9,2.2,2.9,2.9c0,0.7-0.5,1.3-1.9,3.1c-0.1,0.2-0.3,0.3-0.3,0.4c-0.7,1.4-0.7,2.5-0.7,2.6c0,1.3,0.5,1.7,2.3,1.7h7.2
			c4.8,0,5.1,0,5.7-0.6c0.2-0.1,0.6-0.7,0.9-1.1c1.7-2.3,2.6-3.4,3.7-3.4c1.4,0,8.8,5.3,8.8,7.8c0,2.7-3.1,2.7-7.3,2.7h-19.2
			c-2.2,0-2.3,0-2.3,5.7c0,2.9,0.2,3.5,2.2,3.5h4.8c4.8,0,5,0,5.6-0.6c0.2-0.2,0.7-0.8,1.1-1.3c1.9-2.3,2.9-3.4,3.9-3.4
			c1.5,0,10.5,4.8,10.5,7.9c0,2.7-3.1,2.7-7.4,2.7h-18.4c-2,0-2.2,0.1-2.2,5c0,3.7,0.1,4,2.2,4h10.8c5.4,0,5.5,0,6.5-1.5l0.2-0.2
			c2.3-3.1,2.8-3.8,4.5-3.8c2.2,0,9.5,6.2,9.5,8.1c0,2.7-3.1,2.7-7.4,2.7h-44.1c-2.6,0-10.6,0-14.7,0.3c-0.3,0-0.6,0.1-1,0.1
			C588,48.3,587.5,48.4,587.2,48.4z"/>
	</g>
	<g>
		<path class="st0" d="M744.4,109.8c-4,0-4-4.2-4-5.6c0-0.9,0-3.2,0.1-4.5c0.5-9.6,0.9-29.4,0.9-40c0-4.6,0-13.8,0-22.9
			c-1,1.2-3.6,1.2-7,1.2h-10.3c2.9,1.2,6.6,3.4,6.6,5.9c0,1.3-0.7,1.9-2.3,3.1l-0.3,0.2c-4.3,3.2-7.8,10.4-8.4,11.9
			c5.6,0,5.7,0,6.7-1.5l0.2-0.2c2.5-3.4,2.9-4,4.4-4c2.3,0,9.3,5.9,9.3,8.4c0,2.7-1.6,2.7-7.3,2.7h-14.3c-2.1,0-2.3,0.1-2.3,2.1v8.9
			c0.1,0.8,0.3,0.9,3.1,0.9c4.2,0,4.6,0,5.5-1.4c2.6-4,3.2-4.8,4.8-4.8c2.9,0,9.4,7.2,9.4,9c0,2.7-3.3,2.7-7.4,2.7h-12.3
			c-2.3,0-3.1,0.1-3.1,2.3c0,1.4,0.1,5.3,0.2,9c0.1,3.6,0.2,6.9,0.2,8.1c0,5.4-3.8,8.3-7.6,8.3c-2.4,0-3.6-1.4-3.6-4.3
			c0-1.2,0.2-5.7,0.3-10.4c0.2-4.6,0.4-9.4,0.4-10.7c0-2-0.8-2.3-2.6-2.3c-2.5,0-6.5,0.1-9.2,0.3c-0.3,0-0.7,0.1-1.1,0.1
			c-0.6,0.1-1.1,0.1-1.3,0.1c-0.8,0-1.3-0.5-1.9-1l-2.3-2.8c0,0-0.2-0.3-0.2-0.3c-0.2-0.3-0.5-0.7-0.5-1.2c0-0.1,0-1.4,1.5-1.4
			c1.3,0,4.9,0.2,8.4,0.4c3.2,0.2,6.5,0.4,7.6,0.4c1.3,0,1.3,0,1.5-0.7c0.3-1.3,0.3-4.1,0.3-9.3c0-1.8,0-1.9-5.2-1.9
			c-2.3,0-7.8,0.1-9.8,0.3c0,0-0.1,0-0.1,0c-0.2,0-0.6,0.1-1.1,0.1c-0.6,0.1-1.2,0.1-1.4,0.1c-1.1,0-1.7-0.8-2-1.3l-2.1-2.5
			l-0.2-0.3c-0.4-0.5-0.6-0.8-0.6-1.3c0-0.1,0-1.4,1.6-1.4c0.4,0,1.4,0.1,2.9,0.2c1,0.1,2.1,0.2,2.4,0.2c1.1,0,2.5,0.1,4,0.2
			c1.7,0.1,3.5,0.1,5.1,0.2c-2-0.8-2.2-3.2-2.7-7.2l0-0.3c-0.3-3.2-1.2-6.6-2.5-9.6c0-0.1,0-0.1-0.1-0.2c0-0.2-0.1-0.3-0.2-0.5
			c-0.1-0.4-0.2-0.7-0.2-1.1c0-0.7,0.5-1.5,1.7-1.5c1.4,0,5.3,3,5.7,3.3c5.3,4.2,5.7,7.7,5.7,11.3c0,1.8-1.4,4.9-4.1,5.8
			c0.2,0,0.4,0,0.6,0h9c2.7,0,3.3,0,5-10.9c0.1-0.7,0.3-2.7,0.4-4.6c0.2-2.2,0.4-4.3,0.5-5c0-0.2,0.1-0.4,0.2-0.6h-14.6
			c-2.6,0-10.6,0-14.7,0.3c-0.3,0-0.7,0.1-1.2,0.1c-0.6,0.1-1.2,0.1-1.3,0.1c-0.8,0-1.3-0.5-1.9-1l-2.3-2.8
			c-0.5-0.7-0.7-0.9-0.7-1.6c0-0.1,0-1.4,1.5-1.4c0.4,0,1.3,0.1,2.8,0.2c1,0.1,2.2,0.2,2.6,0.2c1.8,0.1,10.8,0.5,12.9,0.5
			c5,0,5,0,5-2v-6.3c0-1.8-0.2-2.1-1.7-2.1c-2.1,0-7.6,0-10.1,0.3c-0.1,0-0.1,0-0.2,0c-0.1,0-0.4,0.1-0.6,0.1
			c-0.6,0.1-0.8,0.1-1,0.1c-1.1,0-1.7-0.8-2-1.3l-2.3-2.6l-0.2-0.3c-0.3-0.3-0.5-0.7-0.5-1.1c0-0.4,0.2-1.4,1.6-1.4
			c0.3,0,1.2,0.1,2.2,0.1c0.9,0.1,1.7,0.1,2,0.1c0.4,0,2,0.1,4.4,0.2c2.5,0.1,5.7,0.3,6.5,0.3c1.5,0,1.7-0.3,1.7-2
			c0-0.9-0.3-3.9-0.5-6.5c-0.3-2.8-0.4-4.6-0.4-5.2c0-1.5,1.1-1.6,1.5-1.6c0.1,0,11.5,1.7,11.5,5.3c0,0.6-0.4,1.4-1.5,3.1
			c-0.2,0.3-0.4,0.6-0.4,0.7c-0.2,0.3-0.5,1.2-0.5,4.5c0,1.5,0.3,1.7,1.9,1.7c2.2,0,2.7-0.2,3.6-1.4l0.3-0.3
			c2.4-3.1,2.9-3.7,4.6-3.7c2.5,0,9.3,5.9,9.3,8.1c0,2.8-3.1,2.8-7.3,2.8h-9.5c-2.6,0-2.8,0-2.8,1.9v6.6c0,1.8,0.1,1.9,2.1,1.9
			c4.7,0,5.6-0.1,6.1-0.3c0.4-0.2,1.5-1.4,2.3-2.3c2.2-2.5,3.2-3.4,4.3-3.4c1.4,0,8.1,4.4,10,7.3c0-8.3-0.1-16.1-0.2-19.6
			c-0.1-0.9-0.5-5.3-0.5-6.3c0-1.8,1.1-2,1.5-2c1.6,0,4,1,6.4,2.1l0.5,0.2c2.2,1.1,2.4,1.1,4.2,1.1h18.7c1,0,1,0,1.8-0.9
			c3-3.5,3.5-4.1,4.9-4.1c3.1,0,9.3,6.2,9.3,9.4c0,1.6-0.8,2.1-2.8,3.6c-0.8,0.6-0.8,3.8-0.8,7.2c0,10.3,0,13-2.1,16
			c-1.6,2.4-5.9,5.3-7.7,5.3c-1.2,0-2.1-0.8-2.3-1c-0.6-0.6-2.2-3-2.7-3.7c-0.6-0.6-1.5-1.5-2.4-2.3c-2.6-2.4-3-2.8-3-3.5
			c0-1.5,1.9-1.5,2.8-1.5c7.2,0,7.2,0,7.4-2.3c0.2-1.9,0.2-6.7,0.2-11.9c0-4.8,0-4.8-3.4-4.8h-16.9c-2.6,0-3.1,0.2-3.1,2.1
			c-0.1,2.2-0.2,29.7-0.2,30.9c0,2.1,0.7,2.2,2.9,2.2h20.8c0.6,0,1.1-0.1,1.5-0.3l0.1-0.1c1.9-1,2.2-1.1,2.5-1.1
			c1,0,8.7,4.4,8.7,7.4c0,1-0.5,1.9-1.4,2.6c-0.1,0-0.1,0.1-0.2,0.1c-0.7,0.3-2.9,1.5-3.2,1.7c-0.7,0.7-3.3,6.3-4.5,9
			c-0.8,1.6-1.3,2.9-1.7,3.5c-0.2,0.4-0.8,1.4-1.4,2.6c-0.9,1.6-2.5,4.5-2.9,5.5c0.9,1.6,7.1,8.1,16.5,12.2c3.7,1.6,4.4,2,4.4,3.2
			c0,1.2-1.1,1.9-2.1,1.9c-2.2,0.1-4,0.2-7.2,1.6c-0.2,0.1-0.6,0.3-1,0.6c-1.9,1.1-2.9,1.6-3.7,1.6c-2.2,0-10.8-9.6-12.7-12
			c-0.6-0.7-1.1-1.3-1.3-1.4c-0.1,0-0.5,0.4-0.7,0.5c-0.1,0.1-0.2,0.2-0.4,0.3c-2,1.8-8.1,6.2-9.2,6.8l-0.1,0.1
			c-3.7,2.4-3.7,2.4-3.8,6.7C751.1,107.3,747.7,109.8,744.4,109.8z M751.1,93.5c1.8-0.6,9.7-8.8,10.3-10.7c-0.3-0.8-1.7-4.2-2.8-6.7
			c-1.3-3-2.5-5.8-2.8-6.9c-1.6-5.1-1.9-8.2-2.3-13.6c0-0.1,0-0.2,0-0.2c-2.2,0-2.5,0.6-2.5,2.7c-0.1,4.9-0.1,9.9-0.1,14.7
			c0,1.2,0.1,4.4,0.1,7.6c0.1,3,0.1,5.9,0.1,7L751.1,93.5C751.1,93.5,751.1,93.5,751.1,93.5z M757.7,55.6c0,5.4,6.7,17.6,8.9,19.2
			c1.9-2,6.6-15.5,6.6-18.4c0-0.8,0-0.9-2.8-0.9h-12.2C757.9,55.5,757.7,55.5,757.7,55.6C757.7,55.5,757.7,55.6,757.7,55.6z"/>
	</g>
</g>
<g>
	<path class="st0" d="M242.8,124.4c0.7-2.1,0.7-2.4-0.4-2.6l-0.5-0.1c-0.1-0.2-0.1-0.5,0.1-0.6c0.7,0,1.5,0.1,2.4,0.1
		c1,0,1.6,0,2.6-0.1c0.2,0.1,0.2,0.4-0.1,0.6l-0.4,0.1c-1.3,0.3-1.4,0.4-2.1,2.6l-0.9,2.9c-0.2,0.5-0.1,0.6,0.4,0.6
		c0.3,0,0.6-0.1,1-0.2c0.5-0.3,1.4-1,2.3-1.9l2.2-2.1c1.2-1.1,1.4-1.5,1.4-1.6c0-0.1-0.2-0.2-0.5-0.3l-0.4-0.1
		c-0.2-0.1-0.1-0.5,0.1-0.6c0.7,0,1.5,0.1,2.4,0.1c1.1,0,1.7,0,2.4-0.1c0.2,0.1,0.2,0.5,0,0.6l-0.5,0.1c-0.4,0.1-1,0.2-1.5,0.4
		c-0.6,0.2-1.7,1-3.9,3l-2.8,2.6c-0.4,0.3-0.4,0.4-0.2,0.8l2.4,4.9c0.6,1.2,1,1.7,2,1.8l0.6,0.1c0.2,0.1,0.1,0.5-0.1,0.6
		c-0.7,0-1.7-0.1-2.3-0.1c-0.8,0-1.7,0-2.5,0.1c-0.1-0.2-0.1-0.5,0.1-0.6l0.6-0.1c0.8-0.1,0.7-0.3,0.2-1.2l-2.3-4.6
		c-0.5-0.9-0.7-1-0.9-1c-0.4,0-0.6,0.2-0.7,0.6l-1.1,3.5c-0.6,2.1-0.7,2.5,0.4,2.6l0.6,0.1c0.1,0.2,0.1,0.5-0.1,0.6
		c-1,0-1.8-0.1-2.7-0.1c-0.9,0-1.6,0-2.5,0.1c-0.2-0.1-0.2-0.4,0-0.6l0.7-0.1c1.1-0.1,1.3-0.4,2-2.6L242.8,124.4z"/>
	<path class="st0" d="M255.5,133.9c-0.2,0.5-0.1,0.8,0.2,0.8c0.3,0,1.2-0.7,2.4-1.8c2-2,3.2-4.6,3.9-5.9c0.5-0.1,1,0.1,1.1,0.4
		c-0.2,0.6-1.7,4.2-2.6,6.9c-0.1,0.3-0.1,0.6,0.1,0.6c0.4,0,1.6-1,2.2-1.7c0.2,0,0.4,0,0.4,0.3c-0.6,1.1-2.7,2.8-3.9,2.8
		c-0.4,0-0.7-0.4-0.6-0.8l1.5-4l0,0c-1.6,2-4.3,4.8-5.5,4.8c-0.9,0-1-0.9-0.6-1.9l2-5.4c0.2-0.4,0.2-0.6,0-0.6c-0.4,0-1.6,1-2.1,1.5
		c-0.2,0-0.4-0.1-0.4-0.3c0.6-0.9,2.8-2.6,3.8-2.6c0.3,0,0.8,0.3,0.7,0.7L255.5,133.9z"/>
	<path class="st0" d="M268.9,128.9l-1,2.8h0.1c0.7-1.2,1.7-3,2.3-3.7c0.5-0.7,1.1-1.1,1.6-1.1c0.8,0,0.9,0.8,0.9,1.1s-0.2,1-0.5,1.3
		c-0.3,0.3-0.6,0.4-0.7-0.1c-0.1-0.6-0.2-0.9-0.5-0.9c-0.2,0-0.4,0.2-0.8,0.7c-1.3,1.7-2.6,4.4-3.8,7c-0.1,0.2-0.2,0.3-0.4,0.3
		c-0.2,0-0.9-0.1-0.7-0.6c0.3-0.9,1.7-4.8,2.3-7c0.1-0.2,0-0.5-0.2-0.5c-0.6,0-1.2,0.6-1.6,1.1c-0.2,0-0.4-0.1-0.4-0.4
		c0.7-1.2,1.5-2.1,2.6-2.1C269.5,126.8,269.1,128.3,268.9,128.9z"/>
	<path class="st0" d="M281.8,126.3c0.4-0.2,1,0,1.1,0.3c-0.3,0.8-2.3,5.7-3,7.7c-0.1,0.4,0,0.5,0.2,0.5c0.4,0,1-0.4,2.3-1.5
		c0.2,0,0.3,0.1,0.3,0.3c-0.9,1.2-2.5,2.5-3.7,2.5c-0.5,0-0.6-0.4-0.6-0.6c0-0.2,0-0.4,0.2-0.9l0.7-2l-0.1,0
		c-1.6,1.9-3.8,3.5-4.9,3.5c-0.6,0-1-0.6-1-1.2c0-0.5,0.5-2.3,1.9-4.3c1.1-1.5,2-2.3,2.9-2.9c0.9-0.5,1.4-0.6,2-0.6
		c0.2,0,0.4,0.1,0.5,0.1c0.1,0,0.3,0.2,0.4,0.5L281.8,126.3z M277.9,128.8c-1.4,1.3-2.8,4.2-2.8,5.7c0,0.3,0.1,0.4,0.3,0.4
		c0.2,0,0.9-0.3,2.1-1.4c1.7-1.6,2.6-3.5,3-4.8c-0.2-0.4-0.5-0.8-1.1-0.8C279,127.9,278.6,128.2,277.9,128.8z"/>
	<path class="st0" d="M290.1,128c0,0.4-0.2,0.6-0.4,0.7c-0.2,0-0.3,0-0.4-0.2c-0.4-0.4-0.7-0.7-1.3-0.7c-0.6,0-0.9,0.6-0.9,0.9
		c0,0.5,0.1,0.9,0.8,2c0.6,0.9,0.9,1.5,0.8,2.5c0,0.6-0.3,1.4-1.1,2.1c-0.6,0.5-1.4,0.8-2.2,0.8c-0.8,0-1.3-0.7-1.3-1.2
		c0-0.2,0.1-0.5,0.3-0.7c0.2-0.2,0.4-0.2,0.6,0c0.3,0.3,1,0.9,1.5,0.9c0.5,0,1.1-0.6,1.1-1.3c0-0.4-0.3-1.1-0.8-1.9
		c-0.6-0.9-0.8-1.7-0.8-2.1c0-0.9,0.4-1.5,1.3-2.3c0.6-0.6,1.3-0.7,1.6-0.7C289.6,126.8,290.1,127.5,290.1,128z"/>
	<path class="st0" d="M298.1,120.1c-0.4,1.2-1.1,3.2-1.6,4.5l-2.3,6.6l0,0c1.5-2.2,2.7-3.1,3.5-3.6s1.5-0.9,2.1-0.9
		c1,0,1.3,0.7,1.3,1.5c0,1.5-0.9,3.8-1.7,5.2c-0.4,0.8-0.9,1.2-1.4,1.8c-0.7,0.7-1.3,0.9-1.6,0.9c-0.7,0-0.8-0.5-0.8-0.6
		c0-0.4,0.3-0.7,0.6-0.7c0.1,0,0.2,0,0.3,0.1c0.2,0.1,0.4,0.3,0.6,0.3c0.3,0,0.6-0.3,0.9-1.1c0.6-1.4,1.6-4.5,1.6-5.7
		c0-0.4-0.2-0.7-0.5-0.7c-0.3,0-0.8,0.3-1.2,0.6c-0.9,0.7-1.7,1.4-2.8,2.9c-1,1.3-2.1,3.5-2.7,4.6c-0.1,0.2-0.2,0.3-0.4,0.3
		c-0.2,0-0.8-0.1-0.6-0.6l4.2-12.4c0.5-1.5,0.6-1.8,0.2-2l-0.5-0.3c0-0.1,0-0.2,0.1-0.3c0.4-0.2,1.8-0.5,2.6-0.5L298.1,120.1z"/>
	<path class="st0" d="M306.3,128.6c0.1-0.2,0.1-0.4,0-0.4s-0.7,0.3-1.8,1.2c-0.2,0-0.3-0.2-0.3-0.4c1.2-1.4,2.9-2.2,3.6-2.2
		c0.2,0,0.3,0.1,0.4,0.2c0.1,0.1,0.1,0.3-0.1,1l-2.6,6.3c-0.1,0.2-0.1,0.5,0.1,0.5c0.4,0,1.5-0.8,2.3-1.6c0.2,0,0.3,0.2,0.3,0.4
		c-0.3,0.6-2.6,2.6-4.1,2.6c-0.1,0-0.2-0.1-0.4-0.2c-0.1-0.2-0.2-0.4-0.1-0.6L306.3,128.6z M308.9,123.1c0,0.7-0.5,1.4-1.1,1.4
		c-0.6,0-0.8-0.4-0.8-0.8c0-0.5,0.3-1.4,1.2-1.4C308.6,122.2,308.9,122.6,308.9,123.1z"/>
	<path class="st0" d="M314.5,123.3c0.5-1.5,0.5-1.8,0.2-2l-0.4-0.2c-0.1-0.1-0.2-0.2,0-0.3c0.7-0.3,1.7-0.6,2.7-0.8l0.1,0.1
		c-0.2,0.6-0.4,1.4-1.1,3.2l-2.3,6.5h0c0.6-0.9,1.4-1.6,2.3-2.3c0.6-0.4,1.4-0.8,2.4-0.8c1.3,0,1.6,0.8,1.6,1.2
		c0,0.3-0.1,0.9-0.9,1.6c-1,1-2.1,1.7-3.5,1.9c-0.2,0.1-0.1,0.3-0.1,0.4c0.2,0.6,0.6,1.6,0.8,2.1c0.3,0.5,0.5,0.7,0.7,0.7
		c0.3,0,0.7-0.3,1.3-1c0.2,0,0.3,0.1,0.3,0.3c-0.8,1.7-1.9,2.1-2.2,2.1c-0.4,0-0.7-0.3-1-0.9c-0.3-0.5-0.8-1.8-1-2.4
		c-0.2-0.6-0.4-0.8-0.8-0.7c-0.4,0.1-0.6,0.2-0.8,0.9l-1.1,2.8c-0.1,0.2-0.2,0.3-0.4,0.3c-0.2,0-0.9-0.1-0.7-0.6L314.5,123.3z
		 M317.5,127.7c-0.6,0-1.4,0.5-2.1,1.1c-0.8,0.7-1.7,1.8-2,2.4c-0.1,0.2-0.1,0.4,0.2,0.3c0.5,0,1.7-0.4,3.2-1.4
		c0.9-0.6,1.4-1.4,1.4-1.9C318.2,128,318,127.7,317.5,127.7z"/>
	<path class="st0" d="M324.5,128.6c0.1-0.2,0.1-0.4,0-0.4s-0.7,0.3-1.8,1.2c-0.2,0-0.3-0.2-0.3-0.4c1.2-1.4,2.9-2.2,3.6-2.2
		c0.2,0,0.3,0.1,0.4,0.2c0.1,0.1,0.1,0.3-0.1,1l-2.6,6.3c-0.1,0.2-0.1,0.5,0.1,0.5c0.4,0,1.5-0.8,2.3-1.6c0.2,0,0.3,0.2,0.3,0.4
		c-0.3,0.6-2.6,2.6-4.1,2.6c-0.1,0-0.2-0.1-0.4-0.2c-0.1-0.2-0.2-0.4-0.1-0.6L324.5,128.6z M327.1,123.1c0,0.7-0.5,1.4-1.1,1.4
		c-0.6,0-0.8-0.4-0.8-0.8c0-0.5,0.3-1.4,1.2-1.4C326.9,122.2,327.1,122.6,327.1,123.1z"/>
	<path class="st0" d="M340.1,123.9c0.5-1.7,0.3-1.9-0.7-2l-0.7,0c-0.2-0.1-0.1-0.4,0-0.5c0.8-0.1,2.1-0.3,3.7-0.3
		c1.2,0,2.5,0.1,3.6,0.5c1.1,0.5,1.9,1.3,1.9,2.8c0,2.2-2.2,3.3-3.4,3.4c-0.4,0-0.2,0.2,0,0.2c1.3,0.4,2.3,1.7,2.3,3.2
		c0,0.8-0.2,1.9-1.2,2.9c-0.9,0.9-2.6,1.7-5.3,1.7c-1.2,0-2-0.1-2.9-0.1c-0.9,0-1.6,0-2.3,0.1c-0.2-0.1-0.2-0.4,0-0.6l0.4-0.1
		c1.1-0.2,1.3-0.4,2-2.6L340.1,123.9z M338.9,133.3c-0.4,1.5,0.2,1.9,1.8,1.9c1.9,0,4.2-1.1,4.2-4.1c0-1.9-1.6-2.8-3.3-2.8
		c-1.1,0-1.1,0-1.4,0.8L338.9,133.3z M340.8,127c-0.2,0.5-0.1,0.6,0.8,0.6c1.6,0,4.4-0.8,4.4-3.6c0-1.3-1-2.2-2.8-2.2
		c-0.8,0-0.9,0-1.1,0.7L340.8,127z"/>
	<path class="st0" d="M352.3,128.6c0.1-0.2,0.1-0.4,0-0.4c-0.2,0-0.7,0.3-1.8,1.2c-0.2,0-0.3-0.2-0.3-0.4c1.2-1.4,2.9-2.2,3.6-2.2
		c0.2,0,0.3,0.1,0.4,0.2c0.1,0.1,0.1,0.3-0.1,1l-2.6,6.3c-0.1,0.2-0.1,0.5,0.1,0.5c0.4,0,1.5-0.8,2.3-1.6c0.2,0,0.3,0.2,0.3,0.4
		c-0.3,0.6-2.6,2.6-4.1,2.6c-0.1,0-0.2-0.1-0.4-0.2c-0.1-0.2-0.2-0.4-0.1-0.6L352.3,128.6z M355,123.1c0,0.7-0.5,1.4-1.1,1.4
		c-0.6,0-0.8-0.4-0.8-0.8c0-0.5,0.3-1.4,1.2-1.4C354.7,122.2,355,122.6,355,123.1z"/>
	<path class="st0" d="M360.6,123.3c0.5-1.5,0.5-1.8,0.2-2l-0.4-0.2c-0.1-0.1-0.2-0.2,0-0.3c0.7-0.3,1.7-0.6,2.7-0.8l0.1,0.1
		c-0.2,0.6-0.4,1.4-1.1,3.2l-2.3,6.5h0c0.6-0.9,1.4-1.6,2.3-2.3c0.6-0.4,1.4-0.8,2.4-0.8c1.3,0,1.6,0.8,1.6,1.2
		c0,0.3-0.1,0.9-0.9,1.6c-1,1-2.1,1.7-3.5,1.9c-0.2,0.1-0.1,0.3-0.1,0.4c0.2,0.6,0.6,1.6,0.8,2.1c0.3,0.5,0.5,0.7,0.7,0.7
		c0.3,0,0.7-0.3,1.3-1c0.2,0,0.3,0.1,0.3,0.3c-0.8,1.7-1.9,2.1-2.2,2.1c-0.4,0-0.7-0.3-1-0.9c-0.3-0.5-0.8-1.8-1-2.4
		c-0.2-0.6-0.4-0.8-0.8-0.7c-0.4,0.1-0.6,0.2-0.8,0.9l-1.1,2.8c-0.1,0.2-0.2,0.3-0.4,0.3c-0.2,0-0.9-0.1-0.7-0.6L360.6,123.3z
		 M363.6,127.7c-0.6,0-1.4,0.5-2.1,1.1c-0.8,0.7-1.7,1.8-2,2.4c-0.1,0.2-0.1,0.4,0.2,0.3c0.5,0,1.7-0.4,3.2-1.4
		c0.9-0.6,1.4-1.4,1.4-1.9C364.3,128,364.1,127.7,363.6,127.7z"/>
	<path class="st0" d="M375.5,126.3c0.4-0.2,1,0,1.1,0.3c-0.3,0.8-2.3,5.7-3,7.7c-0.1,0.4,0,0.5,0.2,0.5c0.4,0,1-0.4,2.3-1.5
		c0.2,0,0.3,0.1,0.3,0.3c-0.9,1.2-2.5,2.5-3.7,2.5c-0.5,0-0.6-0.4-0.6-0.6c0-0.2,0-0.4,0.2-0.9l0.7-2l-0.1,0
		c-1.6,1.9-3.8,3.5-4.9,3.5c-0.6,0-1-0.6-1-1.2c0-0.5,0.5-2.3,1.9-4.3c1.1-1.5,2-2.3,2.9-2.9c0.9-0.5,1.4-0.6,2-0.6
		c0.2,0,0.4,0.1,0.5,0.1c0.1,0,0.3,0.2,0.4,0.5L375.5,126.3z M371.7,128.8c-1.4,1.3-2.8,4.2-2.8,5.7c0,0.3,0.1,0.4,0.3,0.4
		c0.2,0,0.9-0.3,2.1-1.4c1.7-1.6,2.6-3.5,3-4.8c-0.2-0.4-0.5-0.8-1.1-0.8C372.7,127.9,372.4,128.2,371.7,128.8z"/>
	<path class="st0" d="M381.5,131.6L381.5,131.6c1.6-2.3,3.8-4.8,5.5-4.8c0.9,0,1.2,0.5,1.2,1.2c0,0.4-0.2,1-0.4,1.5
		c-0.4,1.1-2,4.7-2.1,4.9c-0.1,0.2-0.1,0.4,0,0.4c0.4,0,1.4-0.7,2.1-1.5c0.3,0,0.4,0.1,0.4,0.3c-0.8,1.4-2.6,2.5-3.8,2.5
		c-0.2,0-0.5-0.3-0.5-0.6c0-0.2,0.1-0.4,0.5-1.5c0.5-1.1,1.3-3.2,1.8-4.4c0.2-0.4,0.5-1.2,0.5-1.6c0-0.3,0-0.5-0.4-0.5
		c-0.5,0-1.8,1.1-3,2.6c-1.2,1.5-2.1,3.2-3.4,5.6c-0.1,0.2-0.2,0.3-0.4,0.3c-0.2,0-0.8-0.1-0.6-0.6c0.1-0.3,2.5-6.7,2.6-7
		c0.1-0.3,0.1-0.5-0.1-0.5c-0.5,0-1.3,0.5-2,1.1c-0.2,0-0.3-0.2-0.3-0.3c0.8-1.1,2.2-2.1,3.3-2.1c0.5,0,0.8,0.4,0.6,0.9L381.5,131.6
		z"/>
	<path class="st0" d="M403.8,120.1c-0.4,1.2-1.1,3.2-1.6,4.5l-2.3,6.6l0,0c1.5-2.2,2.7-3.1,3.5-3.6s1.5-0.9,2.1-0.9
		c1,0,1.3,0.7,1.3,1.5c0,1.5-0.9,3.8-1.7,5.2c-0.4,0.8-0.9,1.2-1.4,1.8c-0.7,0.7-1.3,0.9-1.6,0.9c-0.7,0-0.8-0.5-0.8-0.6
		c0-0.4,0.3-0.7,0.6-0.7c0.1,0,0.2,0,0.3,0.1c0.2,0.1,0.4,0.3,0.6,0.3c0.3,0,0.6-0.3,0.9-1.1c0.6-1.4,1.6-4.5,1.6-5.7
		c0-0.4-0.2-0.7-0.5-0.7s-0.8,0.3-1.2,0.6c-0.9,0.7-1.7,1.4-2.8,2.9c-1,1.3-2.1,3.5-2.7,4.6c-0.1,0.2-0.2,0.3-0.4,0.3
		c-0.2,0-0.8-0.1-0.6-0.6l4.2-12.4c0.5-1.5,0.6-1.8,0.2-2l-0.5-0.3c0-0.1,0-0.2,0.1-0.3c0.4-0.2,1.8-0.5,2.6-0.5L403.8,120.1z"/>
	<path class="st0" d="M411.9,128.6c0.1-0.2,0.1-0.4,0-0.4s-0.7,0.3-1.8,1.2c-0.2,0-0.3-0.2-0.3-0.4c1.2-1.4,2.9-2.2,3.6-2.2
		c0.2,0,0.3,0.1,0.4,0.2c0.1,0.1,0.1,0.3-0.1,1l-2.6,6.3c-0.1,0.2-0.1,0.5,0.1,0.5c0.4,0,1.5-0.8,2.3-1.6c0.2,0,0.3,0.2,0.3,0.4
		c-0.3,0.6-2.6,2.6-4.1,2.6c-0.1,0-0.2-0.1-0.4-0.2c-0.1-0.2-0.2-0.4-0.1-0.6L411.9,128.6z M414.5,123.1c0,0.7-0.5,1.4-1.1,1.4
		c-0.6,0-0.8-0.4-0.8-0.8c0-0.5,0.3-1.4,1.2-1.4C414.3,122.2,414.5,122.6,414.5,123.1z"/>
	<path class="st0" d="M421.5,128c0,0.4-0.2,0.6-0.4,0.7c-0.2,0-0.3,0-0.4-0.2c-0.4-0.4-0.7-0.7-1.3-0.7c-0.6,0-0.9,0.6-0.9,0.9
		c0,0.5,0.1,0.9,0.8,2c0.6,0.9,0.9,1.5,0.8,2.5c0,0.6-0.3,1.4-1.1,2.1c-0.6,0.5-1.4,0.8-2.2,0.8c-0.8,0-1.3-0.7-1.3-1.2
		c0-0.2,0.1-0.5,0.3-0.7c0.2-0.2,0.4-0.2,0.6,0c0.3,0.3,1,0.9,1.5,0.9c0.5,0,1.1-0.6,1.1-1.3c0-0.4-0.3-1.1-0.8-1.9
		c-0.6-0.9-0.8-1.7-0.8-2.1c0-0.9,0.4-1.5,1.3-2.3c0.6-0.6,1.3-0.7,1.6-0.7C421,126.8,421.5,127.5,421.5,128z"/>
	<path class="st0" d="M427.1,128.2l-2,5.8c-0.1,0.4,0,0.6,0.2,0.6c0.3,0,1.8-1.1,2.5-2c0.2,0,0.4,0.1,0.3,0.4
		c-1.2,1.8-3.3,3.2-4.2,3.2c-0.3,0-0.6-0.3-0.6-0.6c0-0.3,0.1-0.6,0.3-1.3l2.1-6.1H424c0-0.2,0-0.5,0.2-0.6l1.8-0.3l1.2-2.2
		c0.2-0.1,0.7-0.1,0.8,0.1l-0.6,2.2h2.4c0.2,0.2,0,0.7-0.3,0.8H427.1z"/>
	<path class="st0" d="M438.2,129.6c-0.1,1.2-0.7,3.3-2.3,5c-1.4,1.4-2.6,1.5-3.2,1.5c-1.4,0-2.3-1-2.2-2.9c0.1-1.4,0.9-3.5,2.4-5
		c1.1-1.1,2.1-1.4,3-1.4C437.5,126.8,438.3,128,438.2,129.6z M434.2,128.5c-1.3,1.7-2.1,4.4-2.2,5.5c0,0.8,0.3,1.4,0.9,1.4
		c0.5,0,1-0.2,1.7-1.1c1-1.3,2-4.2,2.1-5.4c0-0.7-0.1-1.5-0.9-1.5C435.4,127.4,434.9,127.6,434.2,128.5z"/>
	<path class="st0" d="M444.2,128.9l-1,2.8h0.1c0.7-1.2,1.7-3,2.3-3.7c0.5-0.7,1.1-1.1,1.6-1.1c0.8,0,0.9,0.8,0.9,1.1s-0.2,1-0.5,1.3
		c-0.3,0.3-0.6,0.4-0.7-0.1c-0.1-0.6-0.2-0.9-0.5-0.9c-0.2,0-0.4,0.2-0.8,0.7c-1.3,1.7-2.6,4.4-3.8,7c-0.1,0.2-0.2,0.3-0.4,0.3
		c-0.2,0-0.9-0.1-0.7-0.6c0.3-0.9,1.7-4.8,2.3-7c0.1-0.2,0-0.5-0.2-0.5c-0.6,0-1.2,0.6-1.6,1.1c-0.2,0-0.4-0.1-0.4-0.4
		c0.7-1.2,1.5-2.1,2.6-2.1C444.8,126.8,444.4,128.3,444.2,128.9z"/>
	<path class="st0" d="M452.2,128.6c0.1-0.2,0.1-0.4,0-0.4c-0.2,0-0.7,0.3-1.8,1.2c-0.2,0-0.3-0.2-0.3-0.4c1.2-1.4,2.9-2.2,3.6-2.2
		c0.2,0,0.3,0.1,0.4,0.2c0.1,0.1,0.1,0.3-0.1,1l-2.6,6.3c-0.1,0.2-0.1,0.5,0.1,0.5c0.4,0,1.5-0.8,2.3-1.6c0.2,0,0.3,0.2,0.3,0.4
		c-0.3,0.6-2.6,2.6-4.1,2.6c-0.1,0-0.2-0.1-0.4-0.2c-0.1-0.2-0.2-0.4-0.1-0.6L452.2,128.6z M454.8,123.1c0,0.7-0.5,1.4-1.1,1.4
		c-0.6,0-0.8-0.4-0.8-0.8c0-0.5,0.3-1.4,1.2-1.4C454.5,122.2,454.8,122.6,454.8,123.1z"/>
	<path class="st0" d="M463.8,128.1c0,0.9-0.9,1-1.1,1c-0.2,0-0.4-0.1-0.4-0.4c-0.1-0.6,0-1.2-0.8-1.2c-0.5,0-1.2,0.5-1.9,1.5
		c-0.7,1.1-1.4,2.9-1.5,4.6c0,1.1,0.4,1.4,1,1.4c0.7,0,1.5-0.6,2.4-1.3c0.2,0,0.4,0.2,0.3,0.4c-0.9,1.1-2.3,2.1-3.6,2.1
		c-0.9,0-1.7-0.6-1.7-2.3c0-1.4,0.9-4,2.8-5.7c0.9-0.8,1.9-1.3,2.9-1.3C463.2,126.8,463.8,127.4,463.8,128.1z"/>
	<path class="st0" d="M472.9,126.3c0.4-0.2,1,0,1.1,0.3c-0.3,0.8-2.3,5.7-3,7.7c-0.1,0.4,0,0.5,0.2,0.5c0.4,0,1-0.4,2.3-1.5
		c0.2,0,0.3,0.1,0.3,0.3c-0.9,1.2-2.5,2.5-3.7,2.5c-0.5,0-0.6-0.4-0.6-0.6c0-0.2,0-0.4,0.2-0.9l0.7-2l-0.1,0
		c-1.6,1.9-3.8,3.5-4.9,3.5c-0.6,0-1-0.6-1-1.2c0-0.5,0.5-2.3,1.9-4.3c1.1-1.5,2-2.3,2.9-2.9c0.9-0.5,1.4-0.6,2-0.6
		c0.2,0,0.4,0.1,0.5,0.1c0.1,0,0.3,0.2,0.4,0.5L472.9,126.3z M469.1,128.8c-1.4,1.3-2.8,4.2-2.8,5.7c0,0.3,0.1,0.4,0.3,0.4
		c0.2,0,0.9-0.3,2.1-1.4c1.7-1.6,2.6-3.5,3-4.8c-0.2-0.4-0.5-0.8-1.1-0.8C470.1,127.9,469.7,128.2,469.1,128.8z"/>
	<path class="st0" d="M477.7,134.4c-0.2,0.5-0.2,0.7,0.1,0.7c0.5,0,1.5-1.1,2.5-2.2c0.2,0,0.4,0.1,0.4,0.3c-0.6,1.1-2,2.9-3.8,2.9
		c-0.7,0-0.9-0.3-0.9-0.7c0-0.4,0.1-0.8,0.5-1.9l3.5-10.5c0.5-1.5,0.3-1.8,0-1.9l-0.4-0.2c-0.1-0.1-0.1-0.3,0-0.4
		c0.4-0.2,1.8-0.6,2.8-0.7l0.1,0.1c-0.3,0.8-0.5,1.4-1.3,3.8L477.7,134.4z"/>
	<path class="st0" d="M494.8,139.3c-0.4,1.2-0.3,1.5,0.2,1.6l0.7,0.1c0.1,0.1,0.1,0.4-0.1,0.5c-0.8,0-3.4,0.4-4.8,0.6
		c-0.2-0.1-0.2-0.4-0.1-0.5l1-0.3c1-0.3,1.1-0.7,1.4-1.7l2.5-7.9h0c-1,1.5-3.3,4.4-5.5,4.4c-1,0-1.3-0.8-1.3-1.7
		c0-0.8,0.2-2,1.1-3.5c0.9-1.5,2.1-2.8,3.4-3.4c1-0.5,1.6-0.7,2.5-0.7c0.6,0,1.1,0.6,1.2,1.2c0.3-0.5,0.8-1.3,1.2-1.8
		c0.2,0,0.5,0,0.5,0.3c-0.2,0.7-0.6,1.8-1.3,4.4L494.8,139.3z M493.7,128.3c-1.4,1.3-3.2,4.6-3.2,6.2c0,0.4,0.2,0.6,0.5,0.6
		c0.3,0,1-0.4,1.9-1.1c0.9-0.8,2.1-2.1,2.8-3.2c0.6-1.1,0.6-1.7,0.6-2.2c0-0.4-0.3-1.3-0.8-1.3C495.1,127.4,494.5,127.7,493.7,128.3
		z"/>
	<path class="st0" d="M502.8,133.9c-0.2,0.5-0.1,0.8,0.2,0.8c0.3,0,1.2-0.7,2.4-1.8c2-2,3.2-4.6,3.9-5.9c0.5-0.1,1,0.1,1.1,0.4
		c-0.2,0.6-1.7,4.2-2.6,6.9c-0.1,0.3-0.1,0.6,0.1,0.6c0.4,0,1.6-1,2.2-1.7c0.2,0,0.4,0,0.4,0.3c-0.6,1.1-2.7,2.8-3.9,2.8
		c-0.4,0-0.7-0.4-0.6-0.8l1.5-4l0,0c-1.6,2-4.3,4.8-5.5,4.8c-0.9,0-1-0.9-0.6-1.9l2-5.4c0.2-0.4,0.2-0.6,0-0.6c-0.4,0-1.6,1-2.1,1.5
		c-0.2,0-0.4-0.1-0.4-0.3c0.6-0.9,2.8-2.6,3.8-2.6c0.3,0,0.8,0.3,0.7,0.7L502.8,133.9z"/>
	<path class="st0" d="M520.4,126.3c0.4-0.2,1,0,1.1,0.3c-0.3,0.8-2.3,5.7-3,7.7c-0.1,0.4,0,0.5,0.2,0.5c0.4,0,1-0.4,2.3-1.5
		c0.2,0,0.3,0.1,0.3,0.3c-0.9,1.2-2.5,2.5-3.7,2.5c-0.5,0-0.6-0.4-0.6-0.6c0-0.2,0-0.4,0.2-0.9l0.7-2l-0.1,0
		c-1.6,1.9-3.8,3.5-4.9,3.5c-0.6,0-1-0.6-1-1.2c0-0.5,0.5-2.3,1.9-4.3c1.1-1.5,2-2.3,2.9-2.9c0.9-0.5,1.4-0.6,2-0.6
		c0.2,0,0.4,0.1,0.5,0.1c0.1,0,0.3,0.2,0.4,0.5L520.4,126.3z M516.6,128.8c-1.4,1.3-2.8,4.2-2.8,5.7c0,0.3,0.1,0.4,0.3,0.4
		c0.2,0,0.9-0.3,2.1-1.4c1.7-1.6,2.6-3.5,3-4.8c-0.2-0.4-0.5-0.8-1.1-0.8C517.6,127.9,517.3,128.2,516.6,128.8z"/>
	<path class="st0" d="M527.2,128.9l-1,2.8h0.1c0.7-1.2,1.7-3,2.3-3.7c0.5-0.7,1.1-1.1,1.6-1.1c0.8,0,0.9,0.8,0.9,1.1s-0.2,1-0.5,1.3
		c-0.3,0.3-0.6,0.4-0.7-0.1c-0.1-0.6-0.2-0.9-0.5-0.9c-0.2,0-0.4,0.2-0.8,0.7c-1.3,1.7-2.6,4.4-3.8,7c-0.1,0.2-0.2,0.3-0.4,0.3
		c-0.2,0-0.9-0.1-0.7-0.6c0.3-0.9,1.7-4.8,2.3-7c0.1-0.2,0-0.5-0.2-0.5c-0.6,0-1.2,0.6-1.6,1.1c-0.2,0-0.4-0.1-0.4-0.4
		c0.7-1.2,1.5-2.1,2.6-2.1C527.8,126.8,527.4,128.3,527.2,128.9z"/>
	<path class="st0" d="M536.2,128.2l-2,5.8c-0.1,0.4,0,0.6,0.2,0.6c0.3,0,1.8-1.1,2.5-2c0.2,0,0.4,0.1,0.3,0.4
		c-1.2,1.8-3.3,3.2-4.2,3.2c-0.3,0-0.6-0.3-0.6-0.6c0-0.3,0.1-0.6,0.3-1.3l2.1-6.1H533c0-0.2,0-0.5,0.2-0.6l1.8-0.3l1.2-2.2
		c0.2-0.1,0.7-0.1,0.8,0.1l-0.6,2.2h2.4c0.2,0.2,0,0.7-0.3,0.8H536.2z"/>
	<path class="st0" d="M546.8,128.1c0,1.7-2.2,2.8-5.4,3.7c-0.2,0.4-0.3,1.1-0.3,2c0,0.8,0.5,1.3,1.1,1.3c0.8,0,1.3-0.4,2.3-1.3
		c0.2,0,0.3,0.2,0.3,0.4c-1.3,1.7-2.6,2-3.5,2c-1.3,0-1.8-1.2-1.8-2.3c0-1.4,0.9-4.1,3.3-5.9c1.1-0.9,2-1.1,2.7-1.1
		C546.3,126.8,546.8,127.5,546.8,128.1z M543.3,128.5c-0.9,0.9-1.4,1.9-1.6,2.6c1.5-0.4,2.1-0.9,3-1.6c0.7-0.6,0.9-1.3,0.9-1.5
		c0-0.2-0.1-0.5-0.5-0.5C544.7,127.5,544.1,127.7,543.3,128.5z"/>
	<path class="st0" d="M551.9,128.9l-1,2.8h0.1c0.7-1.2,1.7-3,2.3-3.7c0.5-0.7,1.1-1.1,1.6-1.1c0.8,0,0.9,0.8,0.9,1.1s-0.2,1-0.5,1.3
		c-0.3,0.3-0.6,0.4-0.7-0.1c-0.1-0.6-0.2-0.9-0.5-0.9c-0.2,0-0.4,0.2-0.8,0.7c-1.3,1.7-2.6,4.4-3.8,7c-0.1,0.2-0.2,0.3-0.4,0.3
		c-0.2,0-0.9-0.1-0.7-0.6c0.3-0.9,1.7-4.8,2.3-7c0.1-0.2,0-0.5-0.2-0.5c-0.6,0-1.2,0.6-1.6,1.1c-0.2,0-0.4-0.1-0.4-0.4
		c0.7-1.2,1.5-2.1,2.6-2.1C552.5,126.8,552.1,128.3,551.9,128.9z"/>
	<path class="st0" d="M318.4,158.7c-0.8,2.4-0.9,2.9,1.8,2.9c2.5,0,3.5-0.1,4.8-2.3c0.2-0.1,0.4,0,0.5,0.1c-0.2,0.8-1,2.3-1.4,2.9
		c-0.8,0-1.7,0-2.6,0c-0.9,0-1.7,0-2.5,0h-2.6c-0.9,0-1.6,0-2.3,0.1c-0.2-0.1-0.2-0.4,0-0.6l0.5-0.1c1.1-0.1,1.3-0.4,2-2.6l2.6-8.2
		c0.7-2.1,0.7-2.4-0.5-2.6l-0.5-0.1c-0.1-0.2-0.1-0.5,0.1-0.6c0.9,0,1.6,0.1,2.5,0.1c1,0,1.6,0,2.8-0.1c0.2,0.1,0.2,0.4,0,0.6
		l-0.7,0.1c-1.3,0.2-1.4,0.4-2.1,2.6L318.4,158.7z"/>
	<path class="st0" d="M335.5,156.1c-0.1,1.2-0.7,3.3-2.3,5c-1.4,1.4-2.6,1.5-3.2,1.5c-1.4,0-2.3-1-2.2-2.9c0.1-1.4,0.9-3.5,2.4-5
		c1.1-1.1,2.1-1.4,3.1-1.4C334.9,153.3,335.6,154.5,335.5,156.1z M331.5,155c-1.3,1.7-2.1,4.4-2.2,5.5c0,0.8,0.3,1.4,0.9,1.4
		c0.5,0,1-0.2,1.7-1.1c1-1.3,2-4.2,2.1-5.4c0-0.7-0.1-1.5-0.9-1.5C332.7,154,332.2,154.2,331.5,155z"/>
	<path class="st0" d="M345.2,154.6c0,0.9-0.9,1-1.1,1c-0.2,0-0.4-0.1-0.4-0.4c-0.1-0.6,0-1.2-0.8-1.2c-0.5,0-1.2,0.5-1.9,1.5
		c-0.7,1.1-1.4,2.9-1.5,4.6c0,1.1,0.4,1.4,1,1.4c0.7,0,1.5-0.6,2.4-1.3c0.2,0,0.4,0.2,0.3,0.4c-0.9,1.1-2.3,2.1-3.6,2.1
		c-0.9,0-1.7-0.6-1.7-2.3c0-1.4,0.9-4,2.8-5.7c0.9-0.8,1.9-1.3,2.9-1.3C344.7,153.3,345.2,153.9,345.2,154.6z"/>
	<path class="st0" d="M354.3,152.8c0.4-0.2,1,0,1.1,0.3c-0.3,0.8-2.3,5.7-3,7.7c-0.1,0.4,0,0.5,0.2,0.5c0.4,0,1-0.4,2.3-1.5
		c0.2,0,0.3,0.1,0.3,0.3c-0.9,1.2-2.5,2.5-3.7,2.5c-0.5,0-0.6-0.4-0.6-0.6c0-0.2,0-0.4,0.2-0.9l0.7-2l-0.1,0
		c-1.6,1.9-3.8,3.5-4.9,3.5c-0.6,0-1-0.6-1-1.2c0-0.5,0.5-2.3,1.9-4.3c1.1-1.5,2-2.3,2.9-2.9c0.9-0.5,1.4-0.6,2-0.6
		c0.2,0,0.4,0.1,0.5,0.1c0.1,0,0.3,0.2,0.4,0.5L354.3,152.8z M350.5,155.3c-1.4,1.3-2.8,4.2-2.8,5.7c0,0.3,0.1,0.4,0.3,0.4
		c0.2,0,0.9-0.3,2.1-1.4c1.7-1.6,2.6-3.5,3-4.8c-0.2-0.4-0.5-0.8-1.1-0.8C351.5,154.5,351.2,154.7,350.5,155.3z"/>
	<path class="st0" d="M359.1,160.9c-0.2,0.5-0.2,0.7,0.1,0.7c0.5,0,1.5-1.1,2.5-2.2c0.2,0,0.4,0.1,0.4,0.3c-0.6,1.1-2,2.9-3.8,2.9
		c-0.7,0-0.9-0.3-0.9-0.7c0-0.4,0.1-0.8,0.5-1.9l3.5-10.5c0.5-1.5,0.3-1.8,0-1.9l-0.4-0.2c-0.1-0.1-0.1-0.3,0-0.4
		c0.4-0.2,1.8-0.6,2.8-0.7l0.1,0.1c-0.3,0.8-0.5,1.4-1.3,3.8L359.1,160.9z"/>
	<path class="st0" d="M373.5,155.1c0.1-0.2,0.1-0.4,0-0.4c-0.2,0-0.7,0.3-1.8,1.2c-0.2,0-0.3-0.2-0.3-0.4c1.2-1.4,2.9-2.2,3.6-2.2
		c0.2,0,0.3,0.1,0.4,0.2c0.1,0.1,0.1,0.3-0.1,1l-2.6,6.3c-0.1,0.2-0.1,0.5,0.1,0.5c0.4,0,1.5-0.8,2.3-1.6c0.2,0,0.3,0.2,0.3,0.4
		c-0.3,0.6-2.6,2.6-4.1,2.6c-0.1,0-0.2-0.1-0.4-0.2c-0.1-0.2-0.2-0.4-0.1-0.6L373.5,155.1z M376.1,149.6c0,0.7-0.5,1.4-1.1,1.4
		c-0.6,0-0.8-0.4-0.8-0.8c0-0.5,0.3-1.4,1.2-1.4C375.9,148.8,376.1,149.1,376.1,149.6z"/>
	<path class="st0" d="M380.7,158.1L380.7,158.1c1.6-2.3,3.8-4.8,5.5-4.8c0.9,0,1.2,0.5,1.2,1.2c0,0.4-0.2,1-0.4,1.5
		c-0.4,1.1-2,4.7-2.1,4.9c-0.1,0.2-0.1,0.4,0,0.4c0.4,0,1.4-0.7,2.1-1.5c0.3,0,0.4,0.1,0.4,0.3c-0.8,1.4-2.6,2.5-3.8,2.5
		c-0.2,0-0.5-0.3-0.5-0.6c0-0.2,0.1-0.4,0.5-1.5c0.5-1.1,1.3-3.2,1.8-4.4c0.2-0.4,0.5-1.2,0.5-1.6c0-0.3,0-0.5-0.4-0.5
		c-0.5,0-1.8,1.1-3,2.6c-1.2,1.5-2.1,3.2-3.4,5.6c-0.1,0.2-0.2,0.3-0.4,0.3c-0.2,0-0.8-0.1-0.6-0.6c0.1-0.3,2.5-6.7,2.6-7
		c0.1-0.3,0.1-0.5-0.1-0.5c-0.5,0-1.3,0.5-2,1.1c-0.2,0-0.3-0.2-0.3-0.3c0.8-1.1,2.2-2.1,3.3-2.1c0.5,0,0.8,0.4,0.6,0.9L380.7,158.1
		z"/>
	<path class="st0" d="M394,154.4c-0.1,0.4-0.3,1.1-0.6,2.1c-0.7,2.5-1.3,4.6-2,7c-0.6,2-1.3,3.1-1.7,3.6c-0.3,0.3-1.3,1.2-2.7,1.2
		c-1.2,0-1.6-0.8-1.6-1.1c0-0.4,0.3-0.8,0.5-1c0.2-0.1,0.4-0.1,0.5,0.1c0.5,0.6,1.2,0.9,1.7,0.9c0.4,0,0.9-0.2,1.4-1.9
		c1-3.5,1.8-7.3,2.9-10.9h-1.8c-0.2-0.2-0.1-0.6,0.2-0.8h1.9c0.6-2,1.2-3.7,2.5-5.3c1.1-1.3,2.3-1.8,3.5-1.8c0.8,0,1.7,0.6,1.7,1.5
		c0,0.6-0.6,1.3-1,1.3c-0.2,0-0.3-0.2-0.3-0.4c-0.1-1.2-0.7-1.6-1.2-1.6c-0.5,0-1.1,0.4-1.6,1.2c-1,1.5-1.5,3.1-2.1,5.1h2.8
		c0.2,0.2,0.1,0.6-0.2,0.8H394z"/>
	<path class="st0" d="M404.6,156.1c-0.1,1.2-0.7,3.3-2.3,5c-1.4,1.4-2.6,1.5-3.2,1.5c-1.4,0-2.3-1-2.2-2.9c0.1-1.4,0.9-3.5,2.4-5
		c1.1-1.1,2.1-1.4,3.1-1.4C403.9,153.3,404.7,154.5,404.6,156.1z M400.6,155c-1.3,1.7-2.1,4.4-2.2,5.5c0,0.8,0.3,1.4,0.9,1.4
		c0.5,0,1-0.2,1.7-1.1c1-1.3,2-4.2,2.1-5.4c0-0.7-0.1-1.5-0.9-1.5C401.7,154,401.2,154.2,400.6,155z"/>
	<path class="st0" d="M410.6,155.4l-1,2.8h0.1c0.7-1.2,1.7-3,2.3-3.7c0.5-0.7,1.1-1.1,1.6-1.1c0.8,0,0.9,0.8,0.9,1.1s-0.2,1-0.5,1.3
		c-0.3,0.3-0.6,0.4-0.7-0.1c-0.1-0.6-0.2-0.9-0.5-0.9c-0.2,0-0.4,0.2-0.8,0.7c-1.3,1.7-2.6,4.4-3.8,7c-0.1,0.2-0.2,0.3-0.4,0.3
		c-0.2,0-0.9-0.1-0.7-0.6c0.3-0.9,1.7-4.8,2.3-7c0.1-0.2,0-0.5-0.2-0.5c-0.6,0-1.2,0.6-1.6,1.1c-0.2,0-0.4-0.1-0.4-0.4
		c0.7-1.2,1.5-2.1,2.6-2.1C411.2,153.3,410.8,154.8,410.6,155.4z"/>
	<path class="st0" d="M424.5,156.2l-0.8,2l0.1,0c2.1-3.4,3.8-5,5.3-5c0.8,0,1.2,0.5,1.2,1.2c0,0.4-0.2,1-0.4,1.5
		c-0.4,1.1-2,4.7-2.1,4.9c-0.1,0.2-0.1,0.4,0,0.4c0.4,0,1.4-0.7,2.1-1.5c0.3,0,0.4,0.1,0.4,0.3c-0.8,1.4-2.6,2.5-3.8,2.5
		c-0.2,0-0.5-0.3-0.5-0.6c0-0.2,0.1-0.4,0.5-1.5c0.5-1.1,1.3-3.2,1.8-4.4c0.2-0.4,0.5-1.2,0.5-1.6c0-0.3,0-0.5-0.4-0.5
		c-0.6,0-1.7,1.1-2.9,2.7c-1.1,1.4-2.1,3.2-3.5,5.6c-0.1,0.2-0.2,0.3-0.4,0.3c-0.2,0-0.8-0.1-0.6-0.6l2.2-5.8c0.1-0.2,1-2.1,0.2-2.1
		c-0.6,0-1.9,1.1-3.1,2.7c-1.1,1.4-2,3.2-3.3,5.6c-0.1,0.2-0.2,0.3-0.4,0.3c-0.2,0-0.8-0.1-0.6-0.6c0.1-0.2,2.4-6.6,2.5-7
		c0.1-0.4,0.1-0.6-0.2-0.6c-0.7,0-1.5,0.7-1.9,1.2c-0.2,0-0.3-0.2-0.3-0.3c0.6-1.1,1.7-2.1,3.4-2.1c0.5,0,0.7,0.4,0.5,0.9l-1.5,4
		l0.1,0c1.6-2.6,3.7-5,5.3-5C425.4,153.3,425,155.1,424.5,156.2z"/>
	<path class="st0" d="M440.7,152.8c0.4-0.2,1,0,1.1,0.3c-0.3,0.8-2.3,5.7-3,7.7c-0.1,0.4,0,0.5,0.2,0.5c0.4,0,1-0.4,2.3-1.5
		c0.2,0,0.3,0.1,0.3,0.3c-0.9,1.2-2.5,2.5-3.7,2.5c-0.5,0-0.6-0.4-0.6-0.6c0-0.2,0-0.4,0.2-0.9l0.7-2l-0.1,0
		c-1.6,1.9-3.8,3.5-4.9,3.5c-0.6,0-1-0.6-1-1.2c0-0.5,0.5-2.3,1.9-4.3c1.1-1.5,2-2.3,2.9-2.9c0.9-0.5,1.4-0.6,2-0.6
		c0.2,0,0.4,0.1,0.5,0.1c0.1,0,0.3,0.2,0.4,0.5L440.7,152.8z M436.8,155.3c-1.4,1.3-2.8,4.2-2.8,5.7c0,0.3,0.1,0.4,0.3,0.4
		c0.2,0,0.9-0.3,2.1-1.4c1.7-1.6,2.6-3.5,3-4.8c-0.2-0.4-0.5-0.8-1.1-0.8C437.8,154.5,437.5,154.7,436.8,155.3z"/>
	<path class="st0" d="M447.7,154.7l-2,5.8c-0.1,0.4,0,0.6,0.2,0.6c0.3,0,1.8-1.1,2.5-2c0.2,0,0.4,0.1,0.3,0.4
		c-1.2,1.8-3.3,3.2-4.2,3.2c-0.3,0-0.6-0.3-0.6-0.6c0-0.3,0.1-0.6,0.3-1.3l2.1-6.1h-1.7c0-0.2,0-0.5,0.2-0.6l1.8-0.3l1.2-2.2
		c0.2-0.1,0.7-0.1,0.8,0.1l-0.6,2.2h2.4c0.2,0.2,0,0.7-0.3,0.8H447.7z"/>
	<path class="st0" d="M454,155.1c0.1-0.2,0.1-0.4,0-0.4c-0.2,0-0.7,0.3-1.8,1.2c-0.2,0-0.3-0.2-0.3-0.4c1.2-1.4,2.9-2.2,3.6-2.2
		c0.2,0,0.3,0.1,0.4,0.2c0.1,0.1,0.1,0.3-0.1,1l-2.6,6.3c-0.1,0.2-0.1,0.5,0.1,0.5c0.4,0,1.5-0.8,2.3-1.6c0.2,0,0.3,0.2,0.3,0.4
		c-0.3,0.6-2.6,2.6-4.1,2.6c-0.1,0-0.2-0.1-0.4-0.2c-0.1-0.2-0.2-0.4-0.1-0.6L454,155.1z M456.7,149.6c0,0.7-0.5,1.4-1.1,1.4
		c-0.6,0-0.8-0.4-0.8-0.8c0-0.5,0.3-1.4,1.2-1.4C456.4,148.8,456.7,149.1,456.7,149.6z"/>
	<path class="st0" d="M466.1,156.1c-0.1,1.2-0.7,3.3-2.3,5c-1.4,1.4-2.6,1.5-3.2,1.5c-1.4,0-2.3-1-2.2-2.9c0.1-1.4,0.9-3.5,2.4-5
		c1.1-1.1,2.1-1.4,3-1.4C465.4,153.3,466.2,154.5,466.1,156.1z M462,155c-1.3,1.7-2.1,4.4-2.2,5.5c0,0.8,0.3,1.4,0.9,1.4
		c0.5,0,1-0.2,1.7-1.1c1-1.3,2-4.2,2.1-5.4c0-0.7-0.1-1.5-0.9-1.5C463.2,154,462.7,154.2,462,155z"/>
	<path class="st0" d="M471.3,158.1L471.3,158.1c1.6-2.3,3.8-4.8,5.5-4.8c0.9,0,1.2,0.5,1.2,1.2c0,0.4-0.2,1-0.4,1.5
		c-0.4,1.1-2,4.7-2.1,4.9c-0.1,0.2-0.1,0.4,0,0.4c0.4,0,1.4-0.7,2.1-1.5c0.3,0,0.4,0.1,0.4,0.3c-0.8,1.4-2.6,2.5-3.8,2.5
		c-0.2,0-0.5-0.3-0.5-0.6c0-0.2,0.1-0.4,0.5-1.5c0.5-1.1,1.3-3.2,1.8-4.4c0.2-0.4,0.5-1.2,0.5-1.6c0-0.3,0-0.5-0.4-0.5
		c-0.5,0-1.8,1.1-3,2.6c-1.2,1.5-2.1,3.2-3.4,5.6c-0.1,0.2-0.2,0.3-0.4,0.3c-0.2,0-0.8-0.1-0.6-0.6c0.1-0.3,2.5-6.7,2.6-7
		c0.1-0.3,0.1-0.5-0.1-0.5c-0.5,0-1.3,0.5-2,1.1c-0.2,0-0.3-0.2-0.3-0.3c0.8-1.1,2.2-2.1,3.3-2.1c0.5,0,0.8,0.4,0.6,0.9L471.3,158.1
		z"/>
</g>
</svg>
